<?xml version="1.0" encoding="utf-8"?>
<!-- Generator: Adobe Illustrator 23.0.1, SVG Export Plug-In . SVG Version: 6.00 Build 0)  -->
<svg version="1.1" xmlns="http://www.w3.org/2000/svg" xmlns:xlink="http://www.w3.org/1999/xlink" x="0px" y="0px"
	 viewBox="0 0 500 500" style="enable-background:new 0 0 500 500;" xml:space="preserve">
<style type="text/css">
	.st0{fill:#CEDCFD;}
	.st1{fill:#FAEDEC;}
	.st2{fill:#A5B9F6;}
	.st3{opacity:0.25;}
	.st4{fill:none;stroke:#FFFFFF;stroke-linecap:round;stroke-linejoin:round;stroke-miterlimit:10;}
	.st5{fill:#6287F6;}
	.st6{fill:#BF4D17;}
	.st7{fill:#FF6822;}
	.st8{fill:#FFFFFF;}
	.st9{fill:#8F3B14;}
	.st10{fill:#4C7ED6;}
	.st11{fill:#E2D6D6;}
	.st12{fill:#E2571D;}
	.st13{fill:#436AB4;}
	.st14{fill:#6CA0FA;}
	.st15{fill:#2D2828;}
	.st16{fill:#EBC827;}
	.st17{fill:#3D3A3A;}
	.st18{fill:#FBE5C6;}
	.st19{fill:#D1B223;}
	.st20{fill:#6690E1;}
	.st21{fill:#072C6E;}
	.st22{fill:#21103F;}
	.st23{fill:#FF4D2C;}
	.st24{fill:#D68952;}
	.st25{fill:#EB975A;}
	.st26{fill:#0F0F0F;}
	.st27{fill:#E0D4D4;}
	.st28{fill:#4870CD;}
	.st29{fill:#A9491C;}
	.st30{fill:#D0EAFF;}
	.st31{fill:#E0F1FF;}
	.st32{font-family:'LucidaHandwriting-Italic';}
	.st33{font-size:18px;}
	.st34{fill:#C3CDF1;}
	.st35{fill:#8AA5E2;}
	.st36{fill:#B1C8F6;}
	.st37{fill:#F4D959;}
	.st38{opacity:0.5;fill:#EAB539;}
	.st39{fill:#F6E288;}
	.st40{opacity:0.3;fill:#FFFFFF;}
	.st41{fill:#1F2A6F;}
	.st42{fill:#47559E;}
	.st43{fill:#38468C;}
	.st44{fill:#546AB5;}
	.st45{fill:#AEC9F7;}
	.st46{fill:#7687CC;}
	.st47{fill:#C84989;}
	.st48{fill:#DF66A2;}
</style>
<g id="BACKGROUND">
	<g>
		<g>
			<g>
				<path class="st0" d="M160.3,314.1c-4.1,1.4-9.2,2.1-14.8-1.2c-6-3.6-10-10.3-13.4-16.5c-4.5-8.1-8.7-15-16.5-19.3
					c-5.7-3.1-11.7-4.8-17.1-9.9c-6.3-5.9-9.2-14.2-10.2-21.1c-1.1-8,0.1-15.3-2.7-23.9c-1.6-5.2-4.5-9.8-8.8-13.8
					c-3.1-2.9-6.4-5.3-9.5-8.2c-10-9.4-13.2-22.6-8-28.7c3.3-7.1,12.4-8.5,22.5-1.5c8.1,5.6,12.6,14.6,18.3,22.6
					c6.2,8.7,12.9,12.2,20.8,15.3c5.4,2.1,11.1,4.1,16.3,8.7c5.2,4.6,8.4,10.8,11,16.8c3.2,7.3,6,15.9,12.7,21.6
					c3.6,3.1,7.5,4.9,11.1,8.1c2.4,2.2,4.6,4.8,6.3,7.6c9.5,15.1,5.7,28.3-1.8,34.7C171.9,309.6,166.1,312.2,160.3,314.1z"/>
			</g>
			<path class="st1" d="M75.2,181.1c8.5,12.2,17.1,24.4,25.7,36.6c-5.4-2.8-10.8-5.7-16.3-8.5c-1-0.5-1.7,1.1-0.7,1.7l18.7,9.8
				c0.2,0.1,0.3,0.1,0.4,0.1c7.3,10.2,14.6,20.4,21.9,30.5c-9.7-3.2-19.5-6.4-29.2-9.6c-1.1-0.4-1.8,1.3-0.7,1.7
				c10.4,3.4,20.8,6.8,31.2,10.3c0.2,0.1,0.3,0.1,0.4,0c6.8,9.4,13.7,18.7,20.5,28.1c-8-3-16-5.9-24-8.9c-1.1-0.4-1.8,1.3-0.7,1.7
				c8.9,3.3,17.8,6.6,26.6,9.9c4.6,6.3,9.2,12.5,13.8,18.8l-24.1-9.2c-1.1-0.4-1.8,1.3-0.7,1.7c8.1,3.1,16.2,6.2,24.4,9.3
				c0.5,0.2,1-0.1,1.1-0.5c0.1,0,0.2,0.1,0.3,0.1c5.3,7.2,10.7,14.4,16.1,21.5c0.7,0.9,2.1-0.2,1.4-1.1
				c-5.4-7.2-10.9-14.5-16.3-21.8c2-8.5,3.4-17.1,4.3-25.8c0.1-1.2-1.7-1.4-1.8-0.2c-0.8,8.1-2.2,16.1-3.9,24.1
				c-4.3-5.8-8.6-11.6-12.9-17.5c0-0.3-0.1-0.7-0.6-0.8c0,0,0,0,0,0c-0.2-0.3-0.4-0.6-0.6-0.8c1-8.8,2-17.6,2.9-26.3
				c0.1-1.2-1.7-1.4-1.8-0.2c-0.9,8.1-1.8,16.3-2.7,24.4c-6.8-9.2-13.6-18.5-20.3-27.8c1-9.5,1.9-19,2.9-28.5
				c0.1-1.2-1.7-1.4-1.8-0.2c-0.9,8.8-1.8,17.7-2.7,26.5c-7.4-10.3-14.9-20.6-22.2-31c0.1-0.1,0.2-0.3,0.2-0.5l1.6-13.7
				c0.1-1.2-1.7-1.4-1.8-0.2c-0.5,4.1-1,8.2-1.4,12.3c-8.7-12.3-17.3-24.5-25.9-36.9C75.9,179,74.5,180.1,75.2,181.1z"/>
		</g>
		<g>
			<path class="st0" d="M125.6,349.2c-9.5-2.9-19.1-5.8-29.2-6.2c-10-0.4-20.6,2-27.8,8.4c-7.1,6.4-9.7,17.4-4.2,25
				c6.6,9,20.4,10,32.3,10.3c16.7,0.5,35.4,2.5,45.5,14.5c5.2,6.1,7.4,14.2,13,20c9.7,9.9,26.7,10.4,40.8,7.1
				c14.1-3.4,27.4-9.8,41.9-11.4c16.2-1.8,32.3,2.6,48.4,4.7c55.4,7.3,111.6-8.3,145.5-49c5-6,9.7-13.7,6.5-20.7
				c-4-8.8-14.2-15.2-24.7-14.6c-25.6,1.4-51.4,2.1-76.9-0.3c-22.8-2.1-45.1-7.6-67.8-10.8C215.5,318.5,177.1,333,125.6,349.2"/>
		</g>
		<g>
			<g>
				<g>
					<path class="st2" d="M383.9,305.8c2.5-6,5.1-12.3,4.6-18.8c-0.4-6-0.5-12.7-2.4-18.5c-1.9-5.7-2.4-11.9-2.1-17.9
						c1.1-18.9,9.1-18.1,12.1-17.2c3,0.9,4.7,3.7,5.6,8.5c0.7,3.9,0.9,22.4,6.4,18.8c6.4-4.2,3.2-23.1,3.3-29.6
						c0.1-9.7,2.4-20.4,8.7-28.1c3.1-3.8,7.9-7,12.6-5.5c2.8,0.9,4.9,3.2,6.2,5.8c4.1,7.8,2.5,16.8,0.5,24.9
						c-0.9,3.4-9.5,19.9-0.7,17c2.1-0.7,18-17.6,22-3.2c1.4,5.1-3.5,11.2-11.7,19.3c-5.1,5-24.6,19.1-22.6,24.6
						c1.9,5.5,12.3-5.4,12.5,5.5c0.1,6.1-7,11.6-12,14.6c-2.4,1.5-5,2.4-7.3,4.1c-2.7,1.9-5.7,6-2.9,9.1c1.2,1.4,3.2,1.8,4.3,3.2
						c1.2,1.4,1.2,3.5,0.5,5.2c-0.7,1.7-2.1,3-3.5,4.2c-9,7.6-21.3,10.5-33,10c-11.8-0.5-23.2-4.1-34.2-8.3"/>
				</g>
				<g class="st3">
					<path class="st4" d="M428.6,208.4c0,0-2.4,64.1-34.1,108.7"/>
					<path class="st4" d="M452.2,246.7c0,0-18.5,19.7-35.5,24.8"/>
					<path class="st4" d="M394.2,241.7c0.4,9.9,3.8,37.4,15.1,49.1"/>
					<path class="st4" d="M431.5,294.7c0,0-7.2,8.4-32.4,15.3"/>
					<path class="st4" d="M416.4,324.9c0,0-12.9,4.4-25.7-0.7"/>
				</g>
			</g>
			<g>
				<path class="st2" d="M368,337.8c0,0-42.9,0-53.3,0c-10.4,0-8.7-12.3,20.2-6.9c-7.1-3.2-7.1-7.6-6.5-8.8c0.6-1.1,2.6-1.8,3.8-1.6
					c3.7,0.3,6.5,2.6,9.7,4.4c-5.8-3.8-9.5-10.8-9.2-17.7c0.1-1.9,0.5-4,1.9-5.3c1.6-1.5,4.2-2.4,6.3-2c3.9,0.8,11.1,7.3,14,10.1
					c-14.6-13.4-20.1-34.6-10.8-39.4c15.7-8.1,27.6,37.9,27.6,37.9s-7.8-34.6,5.3-34.8c13.1-0.2,2.5,40.2,2.5,40.2"/>
			</g>
		</g>
		<g>
			<g>
				<g>
					<path class="st2" d="M106.8,327.2c-2.4-5.7-4.8-11.6-4.3-17.7c0.4-5.7,0.5-12,2.3-17.4c1.7-5.4,2.3-11.2,2-16.9
						c-1.1-17.8-8.6-17.1-11.4-16.2c-2.8,0.9-4.5,3.5-5.3,8c-0.7,3.6-0.8,21.2-6,17.8c-6-3.9-3-21.8-3.1-27.9
						c-0.1-9.1-2.3-19.2-8.2-26.5c-2.9-3.6-7.5-6.6-11.9-5.2c-2.6,0.8-4.6,3.1-5.9,5.5c-3.8,7.3-2.4,15.8-0.5,23.5
						c0.8,3.2,9,18.7,0.7,16.1c-2-0.6-16.9-16.6-20.8-3c-1.3,4.8,3.3,10.6,11,18.2c4.8,4.7,23.2,18,21.3,23.2
						c-1.8,5.2-11.6-5.1-11.8,5.1c-0.1,5.7,6.6,10.9,11.3,13.8c2.2,1.4,4.7,2.3,6.8,3.8c2.5,1.8,5.4,5.7,2.8,8.6
						c-1.1,1.3-3,1.7-4.1,3c-1.1,1.3-1.1,3.3-0.5,4.9c0.7,1.6,1.9,2.9,3.3,4c8.5,7.2,20.1,9.9,31.2,9.5c11.1-0.5,21.9-3.9,32.3-7.8"
						/>
				</g>
				<g class="st3">
					<path class="st4" d="M64.6,235.3c0,0,2.2,60.4,32.2,102.5"/>
					<path class="st4" d="M42.4,271.5c0,0,17.5,18.6,33.5,23.4"/>
					<path class="st4" d="M97.1,266.8c-0.4,9.4-3.5,35.3-14.2,46.3"/>
					<path class="st4" d="M61.9,316.7c0,0,6.8,8,30.5,14.4"/>
					<path class="st4" d="M76.2,345.3c0,0,12.1,4.1,24.2-0.7"/>
				</g>
			</g>
			<g>
				<path class="st2" d="M121.9,357.4c0,0,40.5,0,50.3,0c9.8,0,8.2-11.6-19.1-6.5c6.7-3.1,6.7-7.2,6.2-8.3c-0.5-1-2.4-1.7-3.6-1.6
					c-3.5,0.3-6.1,2.4-9.2,4.1c5.5-3.6,8.9-10.2,8.7-16.7c-0.1-1.8-0.5-3.7-1.8-5c-1.5-1.4-3.9-2.3-5.9-1.9
					c-3.7,0.7-10.5,6.9-13.2,9.5c13.8-12.7,19-32.6,10.2-37.2c-14.8-7.7-26,35.7-26,35.7s7.4-32.6-5-32.8
					c-12.4-0.2-2.3,37.9-2.3,37.9"/>
			</g>
		</g>
		<g>
			<g>
				<g>
					<path class="st2" d="M226.8,250.8c-2.6-6.2-5.2-12.7-4.7-19.4c0.5-6.2,0.6-13.1,2.5-19c1.9-5.9,2.5-12.2,2.1-18.4
						c-1.2-19.5-9.4-18.7-12.5-17.7c-3,1-4.9,3.8-5.8,8.8c-0.8,4-0.9,23.1-6.6,19.4c-6.5-4.3-3.3-23.8-3.4-30.5
						c-0.1-10-2.5-21-8.9-28.9c-3.2-3.9-8.2-7.2-13-5.7c-2.9,0.9-5,3.3-6.4,6c-4.2,8-2.6,17.3-0.5,25.6c0.9,3.5,9.8,20.4,0.7,17.5
						c-2.2-0.7-18.5-18.1-22.7-3.3c-1.5,5.2,3.6,11.6,12,19.9c5.2,5.2,25.3,19.7,23.3,25.4c-2,5.7-12.6-5.5-12.9,5.6
						c-0.1,6.3,7.2,11.9,12.3,15.1c2.4,1.5,5.1,2.5,7.5,4.2c2.8,2,5.9,6.2,3,9.4c-1.2,1.4-3.3,1.9-4.5,3.3c-1.2,1.5-1.2,3.6-0.5,5.4
						c0.7,1.7,2.1,3.1,3.6,4.3c9.2,7.9,21.9,10.8,34,10.3c12.1-0.5,23.9-4.2,35.2-8.5"/>
				</g>
				<g class="st3">
					<path class="st4" d="M180.8,150.6c0,0,2.5,66,35.1,111.9"/>
					<path class="st4" d="M156.5,190c0,0,19.1,20.3,36.6,25.5"/>
					<path class="st4" d="M216.2,184.9c-0.4,10.2-3.9,38.5-15.5,50.6"/>
					<path class="st4" d="M177.8,239.4c0,0,7.4,8.7,33.3,15.8"/>
					<path class="st4" d="M193.4,270.6c0,0,13.3,4.5,26.5-0.7"/>
				</g>
			</g>
			<g>
				<path class="st2" d="M243.3,283.8c0,0,44.2,0,54.9,0c10.7,0,9-12.7-20.8-7.1c7.3-3.3,7.4-7.8,6.7-9c-0.6-1.1-2.7-1.8-3.9-1.7
					c-3.8,0.3-6.7,2.7-10,4.5c6-3.9,9.7-11.1,9.5-18.3c-0.1-2-0.5-4.1-1.9-5.4c-1.6-1.5-4.3-2.5-6.5-2.1c-4,0.8-11.4,7.5-14.4,10.4
					c15-13.8,20.7-35.6,11.1-40.6c-16.2-8.4-28.4,39-28.4,39s8.1-35.6-5.5-35.8c-13.5-0.2-2.5,41.4-2.5,41.4"/>
			</g>
		</g>
		<g>
			<g>
				<defs>
					<path id="SVGID_1_" d="M357.2,184.4c0,0.7,0,1.4,0,2.1c0,0-0.1,0-0.1,0c-0.1-0.8-0.4-1.6-0.8-2.3
						C356.5,184.3,356.9,184.3,357.2,184.4z"/>
				</defs>
				<clipPath id="SVGID_2_">
					<use xlink:href="#SVGID_1_"  style="overflow:visible;"/>
				</clipPath>
			</g>
			<g>
				<g>
					<path class="st5" d="M102.6,172.4c1,0,1-1.5,0-1.5C101.6,170.9,101.6,172.4,102.6,172.4L102.6,172.4z"/>
				</g>
			</g>
			<g>
				<g>
					<path class="st5" d="M109.4,167.4c1,0,1-1.5,0-1.5C108.4,165.9,108.4,167.4,109.4,167.4L109.4,167.4z"/>
				</g>
			</g>
			<g>
				<g>
					<path class="st5" d="M234.7,217.5c1,0,1-1.5,0-1.5C233.8,216,233.8,217.5,234.7,217.5L234.7,217.5z"/>
				</g>
			</g>
			<g>
				<g>
					<path class="st5" d="M98.9,161.3c1,0,1-1.5,0-1.5C97.9,159.8,97.9,161.3,98.9,161.3L98.9,161.3z"/>
				</g>
			</g>
			<g>
				<g>
					<path class="st5" d="M391.6,302.1c1,0,1-1.5,0-1.5C390.7,300.6,390.7,302.1,391.6,302.1L391.6,302.1z"/>
				</g>
			</g>
			<g>
				<g>
					<path class="st5" d="M398.4,308.9c1,0,1-1.5,0-1.5C397.5,307.4,397.5,308.9,398.4,308.9L398.4,308.9z"/>
				</g>
			</g>
			<g>
				<g>
					<path class="st5" d="M383.6,315.1c1,0,1-1.5,0-1.5C382.6,313.6,382.6,315.1,383.6,315.1L383.6,315.1z"/>
				</g>
			</g>
			<g>
				<g>
					<path class="st5" d="M365.1,127.3c1,0,1-1.5,0-1.5C364.1,125.8,364.1,127.3,365.1,127.3L365.1,127.3z"/>
				</g>
			</g>
			<g>
				<g>
					<path class="st5" d="M375.6,129.8c1,0,1-1.5,0-1.5C374.6,128.3,374.6,129.8,375.6,129.8L375.6,129.8z"/>
				</g>
			</g>
			<g>
				<g>
					<path class="st5" d="M365.7,137.8c1,0,1-1.5,0-1.5C364.7,136.3,364.7,137.8,365.7,137.8L365.7,137.8z"/>
				</g>
			</g>
			<g>
				<g>
					<path class="st5" d="M249.6,183.5c1,0,1-1.5,0-1.5C248.6,182,248.6,183.5,249.6,183.5L249.6,183.5z"/>
				</g>
			</g>
			<g>
				<g>
					<path class="st5" d="M251.4,173.6c1,0,1-1.5,0-1.5C250.5,172.1,250.5,173.6,251.4,173.6L251.4,173.6z"/>
				</g>
			</g>
			<g>
				<g>
					<path class="st5" d="M258.8,184.1c1,0,1-1.5,0-1.5C257.9,182.6,257.9,184.1,258.8,184.1L258.8,184.1z"/>
				</g>
			</g>
			<g>
				<g>
					<path class="st5" d="M246.5,353.4c1,0,1-1.5,0-1.5C245.5,351.9,245.5,353.4,246.5,353.4L246.5,353.4z"/>
				</g>
			</g>
			<g>
				<g>
					<path class="st5" d="M252,361.4c1,0,1-1.5,0-1.5C251.1,359.9,251.1,361.4,252,361.4L252,361.4z"/>
				</g>
			</g>
			<g>
				<g>
					<path class="st5" d="M402.8,364.5c1,0,1-1.5,0-1.5C401.8,363,401.8,364.5,402.8,364.5L402.8,364.5z"/>
				</g>
			</g>
			<g>
				<g>
					<path class="st5" d="M382.4,200.2c1,0,1-1.5,0-1.5C381.4,198.7,381.4,200.2,382.4,200.2L382.4,200.2z"/>
				</g>
			</g>
			<g>
				<g>
					<path class="st5" d="M114.9,139.6c1,0,1-1.5,0-1.5C113.9,138.1,113.9,139.6,114.9,139.6L114.9,139.6z"/>
				</g>
			</g>
			<g>
				<g>
					<path class="st5" d="M191.5,97c1,0,1-1.5,0-1.5C190.5,95.5,190.5,97,191.5,97L191.5,97z"/>
				</g>
			</g>
			<g>
				<g>
					<path class="st5" d="M246.5,74.2c1,0,1-1.5,0-1.5C245.5,72.7,245.5,74.2,246.5,74.2L246.5,74.2z"/>
				</g>
			</g>
			<g>
				<g>
					<path class="st5" d="M266.2,89c1,0,1-1.5,0-1.5C265.3,87.5,265.3,89,266.2,89L266.2,89z"/>
				</g>
			</g>
			<g>
				<g>
					<path class="st5" d="M105,357.1c1,0,1-1.5,0-1.5C104.1,355.6,104.1,357.1,105,357.1L105,357.1z"/>
				</g>
			</g>
			<g>
				<g>
					<path class="st5" d="M76.6,336.1c1,0,1-1.5,0-1.5C75.6,334.6,75.6,336.1,76.6,336.1L76.6,336.1z"/>
				</g>
			</g>
			<g>
				<g>
					<path class="st5" d="M79.1,340.4c1,0,1-1.5,0-1.5C78.1,338.9,78.1,340.4,79.1,340.4L79.1,340.4z"/>
				</g>
			</g>
			<g>
				<g>
					<path class="st5" d="M74.1,343.5c1,0,1-1.5,0-1.5C73.2,342,73.2,343.5,74.1,343.5L74.1,343.5z"/>
				</g>
			</g>
			<g>
				<g>
					<path class="st5" d="M361.4,394.1c1,0,1-1.5,0-1.5C360.4,392.6,360.4,394.1,361.4,394.1L361.4,394.1z"/>
				</g>
			</g>
			<g>
				<g>
					<path class="st5" d="M102.6,289.7c1,0,1-1.5,0-1.5C101.6,288.2,101.6,289.7,102.6,289.7L102.6,289.7z"/>
				</g>
			</g>
			<g>
				<g>
					<path class="st5" d="M92.1,409c1,0,1-1.5,0-1.5C91.1,407.5,91.1,409,92.1,409L92.1,409z"/>
				</g>
			</g>
			<g>
				<g>
					<path class="st5" d="M231.7,400.9c1,0,1-1.5,0-1.5C230.7,399.4,230.7,400.9,231.7,400.9L231.7,400.9z"/>
				</g>
			</g>
			<g>
				<g>
					<path class="st5" d="M419.4,409c1,0,1-1.5,0-1.5C418.5,407.5,418.5,409,419.4,409L419.4,409z"/>
				</g>
			</g>
			<g>
				<g>
					<path class="st5" d="M265.6,76c1,0,1-1.5,0-1.5C264.7,74.5,264.7,76,265.6,76L265.6,76z"/>
				</g>
			</g>
			<g>
				<g>
					<path class="st5" d="M319.4,163.1c1,0,1-1.5,0-1.5C318.4,161.6,318.4,163.1,319.4,163.1L319.4,163.1z"/>
				</g>
			</g>
			<g>
				<g>
					<path class="st5" d="M337.9,150.1c1,0,1-1.5,0-1.5C336.9,148.6,336.9,150.1,337.9,150.1L337.9,150.1z"/>
				</g>
			</g>
			<g>
				<g>
					<path class="st5" d="M59,197.7c1,0,1-1.5,0-1.5C58,196.2,58,197.7,59,197.7L59,197.7z"/>
				</g>
			</g>
			<g>
				<g>
					<path class="st5" d="M425.6,180.4c1,0,1-1.5,0-1.5C424.7,178.9,424.7,180.4,425.6,180.4L425.6,180.4z"/>
				</g>
			</g>
		</g>
		<g>
			<g>
				<path class="st0" d="M251.8,159.7c45.6,26.5,77.5,73.6,85.2,125.8c0.2,1.6-3.1-0.1-3.4-0.2c-51.6-18.8-85.6-69.5-83.5-124.4
					C250,160,250.9,159.2,251.8,159.7z"/>
			</g>
			<path class="st1" d="M256.3,174.5c20.7,29,41.3,57.9,62,86.9c-9.5-5.6-19-11.2-28.4-16.8c-1-0.6-2,0.9-1,1.5
				c10.6,6.3,21.3,12.6,31.9,18.8c6.4,8.9,12.7,17.8,19.1,26.7c0.7,0.9,2-0.2,1.3-1.1c-6.2-8.8-12.5-17.5-18.7-26.3
				c0-0.2-0.1-0.4-0.4-0.6c0,0,0,0-0.1,0c-21.4-30.1-42.9-60.2-64.3-90.2C256.9,172.4,255.6,173.6,256.3,174.5z"/>
			<path class="st1" d="M268.6,211.7c-0.9-0.6-1.9,0.8-1,1.5c8.7,5.8,17.5,11.5,26.2,17.3c0.9,0.6,1.9-0.8,1-1.5
				C286.1,223.3,277.4,217.5,268.6,211.7z"/>
			<path class="st1" d="M275.6,182.9c0.9,6.4,1.7,12.7,2.6,19.1c-7.5-5.6-14.9-11.2-22.4-16.8c-0.9-0.7-1.9,0.8-1,1.5
				c7.9,5.9,15.8,11.9,23.6,17.8c0.9,0.6,1.8-0.6,1.1-1.3c0.3-0.2,0.5-0.5,0.4-0.9l-2.7-19.6C277.1,181.4,275.4,181.8,275.6,182.9z"
				/>
			<path class="st1" d="M295.8,205.5l-0.9,21.9c0,1.1,1.7,1.2,1.7,0.1l0.9-21.9C297.6,204.5,295.8,204.4,295.8,205.5z"/>
			<path class="st1" d="M316.6,240.6c1.5,6.6,2.1,13.2,1.9,20c0,1.1,1.7,1.2,1.7,0.1c0.2-6.9-0.4-13.7-1.9-20.4
				C318.1,239.2,316.4,239.5,316.6,240.6z"/>
		</g>
		<g>
			<g>
				<path class="st0" d="M285.8,295.5c-3.5-4.4-6.7-10.3-5.1-18.7c1.7-9,8.2-16.8,14.3-23.9c8-9.2,14.6-17.4,16.3-29
					c1.3-8.4,0.7-16.5,4.5-25.4c4.4-10.3,13.3-17.7,21.4-22c9.4-5,18.9-6.7,28.2-13.9c5.7-4.3,10-9.9,13.1-17
					c2.2-5.1,3.7-10.3,5.9-15.4c7.2-16.5,22-26.3,31.7-22.6c10.2,0.8,16,11.4,11.8,27c-3.3,12.5-12.4,22-19.7,32.6
					c-8,11.5-9.3,21.4-9.6,32.4c-0.2,7.5-0.1,15.5-3.5,23.9c-3.3,8.5-9.5,15.2-15.8,21c-7.6,7.2-16.9,14.4-21,25.2
					c-2.2,5.8-2.6,11.4-5,17.3c-1.6,4-3.9,7.8-6.6,11.2c-14.3,18.5-32.3,19.6-43.6,13.2C296.5,307.7,290.8,301.7,285.8,295.5z"/>
			</g>
			<path class="st1" d="M411.6,131.4c-11.3,15.9-22.5,31.9-33.6,48c1.1-7.9,2.1-15.9,3.2-23.8c0.2-1.5-2.2-1.6-2.4-0.1l-3.7,27.4
				c0,0.2,0,0.4,0.1,0.6c-9.3,13.5-18.6,27-27.8,40.5c-0.4-13.4-0.8-26.8-1.2-40.3c0-1.5-2.4-1.6-2.4-0.1c0.4,14.3,0.8,28.7,1.3,43
				c0,0.2,0.1,0.4,0.2,0.6c-8.5,12.6-17,25.2-25.5,37.8c0.1-11.2,0.2-22.3,0.3-33.5c0-1.5-2.4-1.6-2.4-0.1
				c-0.1,12.4-0.2,24.8-0.3,37.2c-5.7,8.5-11.3,16.9-16.9,25.4l0.6-33.8c0-1.5-2.4-1.6-2.4-0.1c-0.2,11.4-0.4,22.8-0.6,34.1
				c0,0.8,0.6,1.1,1.2,1.2c0,0.1,0,0.2,0,0.4c-6.5,9.8-12.9,19.6-19.3,29.4c-0.8,1.3,1.2,2.5,2,1.3c6.5-9.9,13-19.8,19.6-29.7
				c11.4-1.4,22.6-3.5,33.7-6.2c1.5-0.4,1-2.7-0.5-2.3c-10.4,2.6-20.8,4.5-31.4,5.9c5.2-7.9,10.5-15.8,15.8-23.7
				c0.4-0.1,0.7-0.5,0.7-1c0,0,0,0,0-0.1c0.2-0.4,0.5-0.7,0.7-1.1c11.3-2.7,22.5-5.4,33.8-8.1c1.5-0.4,1-2.7-0.5-2.3
				c-10.4,2.5-20.8,5-31.2,7.5c8.4-12.5,16.7-24.9,25.2-37.4c12.1-3,24.2-6.1,36.3-9.1c1.5-0.4,1-2.7-0.5-2.3
				c-11.3,2.8-22.5,5.7-33.8,8.5c9.4-13.8,18.8-27.5,28.3-41.2c0.2,0.1,0.4,0.1,0.6,0l17.5-4.1c1.5-0.3,1-2.7-0.5-2.3
				c-5.3,1.2-10.5,2.5-15.8,3.7c11.2-16.2,22.5-32.3,33.9-48.4C414.5,131.4,412.5,130.1,411.6,131.4z"/>
		</g>
	</g>
</g>
<g id="OBJECTS">
	<polygon class="st6" points="395,331.4 284.4,395.9 283.2,371.3 393.9,308.5 	"/>
	<polyline class="st7" points="283.2,371.3 168.5,335.9 291.2,282.3 393.9,308.5 283.2,371.3 	"/>
	<polygon class="st8" points="169.7,360.2 284.4,395.6 283.2,371.3 168.5,335.9 	"/>
	<polygon class="st6" points="168.7,338.4 283.3,373.8 283.2,371.3 168.5,335.9 	"/>
	<polygon class="st6" points="169.8,360.5 284.4,395.9 284.3,393.4 169.6,358 	"/>
	<polygon class="st9" points="276.2,390.9 284.3,393.4 283.3,373.8 275.2,371.3 	"/>
	<polygon class="st9" points="179.7,355.8 183.6,353.6 187.8,358.2 187.5,351.4 179.4,348.9 	"/>
	<polyline class="st8" points="379.7,300.3 282.6,356.7 281.6,335.5 378.8,281.2 379.7,300.3 	"/>
	<polygon class="st10" points="378.8,283 281.7,337.7 281.6,335.5 378.8,281.2 	"/>
	<polyline class="st10" points="379.8,301.6 282.7,357 282.5,354.8 379.7,299.8 379.8,301.6 	"/>
	<polyline class="st11" points="376,303.7 375.8,303.9 379.9,304.9 379.9,304.9 376,303.7 	"/>
	<polyline class="st12" points="375.8,303.9 351.6,317.7 282.7,357 283.4,360.6 379.9,304.9 375.8,303.9 	"/>
	<polyline class="st13" points="376,303.7 351.6,317.7 375.8,303.9 376,303.7 376,303.7 	"/>
	<polyline class="st14" points="378.8,281.2 288.5,258.6 182.2,305 186.8,311.3 186.6,306.5 281.6,335.5 378.8,281.2 	"/>
	<path class="st8" d="M186,327.1l96.1,29.7c0.3,0.1,0.5-0.1,0.5-0.4l-1-20.5l-94-29c-2.4-0.7-4.9,1-4.7,3.3l0.7,13.8
		C183.6,325.5,184.6,326.7,186,327.1"/>
	<polygon class="st10" points="267.5,348.1 270.8,346.2 274.5,350.2 274.2,338.8 267.2,336.6 	"/>
	<polyline class="st10" points="191.2,328.6 183.2,326.2 182.2,305 190.2,307.5 191.2,328.6 	"/>
	<polygon class="st10" points="184.9,326.7 183.2,326.2 182.2,305 183.9,305.6 	"/>
	<polyline class="st10" points="182.3,307.2 281.7,337.6 281.6,335.5 182.2,305 182.3,307.2 	"/>
	<polyline class="st10" points="183.2,326.2 282.7,357 282.6,354.8 183.1,324.2 183.2,326.2 	"/>
	<path class="st12" d="M220.1,337.6c-0.8,0.8-1.6,1.6-2.4,2.4l65.7,20.5l-0.8-3.6l-36.9-11.4L220.1,337.6"/>
	<path class="st11" d="M220.1,337.6C220.1,337.6,220.1,337.6,220.1,337.6l25.6,7.9L220.1,337.6"/>
	<path class="st15" d="M198.4,273.5l-2.1,2.8c0,0,0,0,0,0L198.4,273.5 M236.9,221.6L236.9,221.6L236.9,221.6L236.9,221.6
		L236.9,221.6"/>
	
		<rect x="368.8" y="220.8" transform="matrix(0.9561 -0.293 0.293 0.9561 -66.0392 122.7027)" class="st16" width="15.6" height="122.1"/>
	
		<rect x="373.6" y="220.9" transform="matrix(0.9562 -0.2928 0.2928 0.9562 -66.2293 122.0297)" class="st17" width="1.7" height="122.6"/>
	
		<rect x="377.8" y="219.7" transform="matrix(0.9562 -0.2928 0.2928 0.9562 -65.6756 123.1881)" class="st17" width="1.7" height="122.6"/>
	
		<rect x="386.7" y="339.7" transform="matrix(0.9561 -0.2929 0.2929 0.9561 -82.6623 130.577)" class="st17" width="16" height="3.1"/>
	<path class="st7" d="M400.6,346.9l-7.8,2.4c-2.1,0.6-4.2-0.5-4.9-2.6l-0.5-1.5l15.3-4.7l0.5,1.5C403.9,344,402.7,346.2,400.6,346.9
		z"/>
	<polygon class="st18" points="366.2,221.2 351.3,225.7 353.9,215.3 355.1,210.6 358.5,213.9 	"/>
	<polygon class="st17" points="358.5,213.9 353.9,215.3 355.1,210.6 	"/>
	<path class="st19" d="M132.3,153.2L132.3,153.2c0.8-1.2,0.4-2.9-0.8-3.6l-15.4-9.6c-1.2-0.8-2.9-0.4-3.6,0.8l-1.4,2.2l-1.1,1.8
		l-22.5,36.2c-0.8,1.2-0.4,2.9,0.8,3.6l53.5,33.3c1.2,0.8,2.9,0.4,3.6-0.8l22.2-35.7c0.8-1.2,0.4-2.9-0.8-3.6l-33.6-20.9
		C131.9,156.1,131.5,154.5,132.3,153.2z"/>
	<path class="st16" d="M141.7,218l-53.5-33.3c-1.2-0.8-1.6-2.4-0.8-3.6l26.2-33.3c0.8-1.2,2.4-1.6,3.6-0.8l53.5,33.3
		c1.2,0.8,1.6,2.4,0.8,3.6l-26.2,33.3C144.6,218.4,143,218.8,141.7,218z"/>
	<path class="st20" d="M308.1,276.3c-2.7,0-5.5,0.7-8,1.9c-3.9,1.8-7.5,4.6-11.7,5c-0.4,0-0.7,0.1-1.1,0.1c-3.1,0-6.6-1.2-10.1-2.4
		c-3.5-1.2-7-2.4-10.1-2.4c-1.1,0-2.1,0.1-3.1,0.5c-2,0.3-3.9,2.1-4.1,4.2c-0.3,3,1.7,5.8,4.2,7.7c5.2,3.9,11.8,4.9,18.4,4.9
		c2.6,0,5.2-0.1,7.7-0.3c5.5-0.3,10.9-0.7,16.4-1c4.2-0.3,9-0.8,11.4-4.3c2.8-4,0.5-10-3.8-12.4
		C312.2,276.7,310.2,276.3,308.1,276.3"/>
	<path class="st6" d="M328.6,171.4c-1.5,0.4-6.9,0.4-11.9,0.8c-1-2.8-2.5-8.9-4.7-16.7c-0.4-1.6-2.6-4.4-5.1-5.5
		c-1.5-0.7-3.8,0.6-3.1,3.5c0.4,1.7,0.8,4,2.7,9.4c2.7,7.5,4.6,11.2,5.8,12.9c0.1,0.3,0.4,0.6,0.6,0.8c0.1,0.1,0.3,0.3,0.4,0.3
		c0.5,0.3,1,0.5,1.6,0.4c4.6-0.2,4.3-0.3,10.2-2.1c4.1-1.2,3.4-0.3,4.3-1.4C330.2,173.2,329.9,171.1,328.6,171.4z"/>
	<path class="st7" d="M290.2,163.4c1,3.8,1.5,7.8,1.9,11.8c0.3,2.9,0,5.9-0.6,8.7c-0.4,1.7-0.8,3.4-1.3,5.1
		c-0.2,0.6-1.8,5.8-1.9,6.3c0,0,22.6,1.5,23.9,1.6c0.1-4.7-4.2-19.8,0-29.1c3-6.4-0.4-6.9-2.2-12.5c-0.5-1.4-3.8-4.2-5.1-4.6
		c-0.7-0.2-1.5-0.4-2.2-0.5c-4-0.6-12.5-2.9-13.8,2.8c-0.4,1.6,0.3,6.5,0.8,8.2C289.8,162.1,290,162.7,290.2,163.4z"/>
	<path class="st21" d="M311,244.4c0.1-0.5,0.1-0.9,0.1-1.3c0.1-0.7,0.1-1.5,0.1-2.4c0-3.6,0.4-19.1,0.7-28.3
		c0.5-8.1,0.2-15.2,0.2-15.2l-23.9-1.6c-0.9,3.5-1.3,6.4-1.4,8.7c-0.6,3.6-4.2,29.7-5.2,34.5c0,0.2-0.1,0.5-0.1,0.7
		c-5.2,7.8-9.1,37.4-10.1,42.5c-0.1,0.7,0.3,0.6,0.7,0.6c1.2-0.1,0.8-1.3,2.5-1.1c0.9,0.1,1.1,1.4,1.1,1.4
		c2.3-6.9,10.1-31,13.7-38.2c0.5-1.1,0.8-2.1,0.9-3c2.9-8,7.4-21.7,8.7-27.6c0.7,6.8,2.3,22.1,3.7,29.3c-3.1,9.7,0.1,30.1-0.4,41.8
		c1.4-2,2.6-2.4,3.1-2.3c0.9,0.1,1.3,0.9,1.3,0.9C307.4,267.9,310.1,252.4,311,244.4z"/>
	<path class="st22" d="M306.8,283.4c0.2,0.5,1.5,1.9,3.2,2.8c1.8,0.9,5.6,1.6,3.4,2.1s-4.6,0-5.9-0.3c-1.2-0.3-2.5-0.4-3.9-0.5
		c-2-0.1-2-0.3-1.5-2.5C302.6,282.1,306,281.7,306.8,283.4z"/>
	<path class="st22" d="M275.5,282.3c0.2,0.5,0.3,3.1,2.1,4.1c1.8,0.9,5.6,1.6,3.4,2.1s-4.6,0-5.9-0.3c-1.2-0.3-1.4-1.7-2.8-1.8
		c-2-0.1-2-0.3-1.5-2.5C271.3,280.9,274.7,280.5,275.5,282.3z"/>
	<path class="st23" d="M293.8,160.4c0.3,0.2,0.7,0.4,1,0.6l-2,6C293.1,165,293.4,162.8,293.8,160.4z"/>
	<path class="st24" d="M296.1,139.8c0,0.3-0.8,5.8-1.2,10c-0.2,2.1,1.2,4.2,2.7,4.3l0.1,0c1.5,0.1,3.3-1.6,3.3-3.7
		c0-3.7,0.5-7.5,0.5-7.5L296.1,139.8z"/>
	<path class="st25" d="M293.5,135.6c0.1,4.8,0.2,5.8,2.1,7.9c1.9,2.1,4.8,3.2,7.1,3.3c2.4,0.2,4.4-2.3,5.1-4.2
		c0.7-2,1.7-6.8,1.4-12.1c-0.2-2.6-3.2-6-6.5-6.3C299.3,124,293.1,124,293.5,135.6z"/>
	<path class="st26" d="M309.1,127.8c-0.5-1.1-2.1-2.7-3.5-3.3c-2.6-1.9-5.9-1.8-8.5-1c-0.8-0.3-1.7-0.6-2.6-0.9l0.1-0.1
		c-0.1,0-5.1-2.8-9.2-0.9c-2.3,1-3.8,3.2-4.6,6.5l0.1,0c-0.6,1.8-0.6,3.7,0.1,5.5c0.7,1.8,1.9,3.3,2.5,5c1.4,3.8,0,7.9-3.7,9.7
		c1.3,1.1,3.3,0.8,4.7-0.2c1.4-0.9,2.3-2.9,3.6-4c2.2-1.8,2-7.1,4.8-6.9l4.3-2.9c3.4-0.8,7.7-1.7,10-3.6c0.9,0.6,1.7,1.3,1.9,2.1
		C309.6,134.2,310.1,129.9,309.1,127.8z M284.8,123.1c-1.5,0.8-2.6,2.2-3.4,3.7c0.8-2.5,2.2-4.2,4.1-5.1c3.2-1.4,6.9,0,8.4,0.7
		C290.8,121.7,287.5,121.6,284.8,123.1z"/>
	<path class="st25" d="M294.9,135.8c0.6,1.7,0.3,3.3-0.6,3.6c-0.9,0.3-2-0.8-2.6-2.5c-0.6-1.7-0.3-3.3,0.6-3.6
		C293.2,133,294.3,134.1,294.9,135.8z"/>
	<polygon class="st27" points="327.4,180.5 313.4,183.5 313.4,164.8 327.4,161.8 	"/>
	<path class="st25" d="M308.4,174.1c1.1-0.9,2.6-1.8,3.7-1.9c1-0.1-0.7,1.3-1.5,2C309.8,175,307.5,174.8,308.4,174.1z"/>
	<path class="st25" d="M310,174.1c2.9-0.5,4.4-1.2,5.7-0.7c1.3,0.5-0.6,2.4-1.6,2.7c-1,0.3-4.5,1.7-5.5,1
		C307.6,176.4,307.8,174.4,310,174.1z"/>
	<path class="st6" d="M308.1,174c-1.5,0.3-10.7-0.1-16.1,0.1c0.3-3.2,1.3-9,2.3-16.1c0.2-1.6-0.7-5.1-2.5-7c-1.1-1.2-3.7-1-4.3,2
		c-0.3,1.7-0.8,4-1.2,9.7c-0.7,9.3-0.1,13.3,0.4,15.1c0.1,0.4,0.4,0.7,0.7,0.9c0.5,0.5,1.2,0.9,2.1,0.9c4.8,0,6.6,0,12.8-1.6
		c4.3-1.1,5.7-0.1,6.6-1.1C309.6,175.9,309.4,173.7,308.1,174z"/>
	<path class="st25" d="M327.3,172.7c0-0.8,0.1-2.1,0.5-3.2c0.2-0.7,1-1.1,1.5-0.5c0.5,0.5,1.3,2.6,0.9,3.6c-0.3,0.8-1,1.6-1.8,1.9
		C327.7,174.7,327.3,174,327.3,172.7z"/>
	<polyline class="st14" points="417.2,55.2 410.1,48.9 451.3,37.5 437,72.3 425.4,61.9 420.6,66.4 417.2,55.2 	"/>
	<polyline class="st28" points="451.3,37.5 451.3,37.5 417.2,55.2 420.6,66.4 425.4,61.9 451.3,37.5 	"/>
	<polyline class="st7" points="158.2,89.6 162.6,81.2 120,84.9 145.6,112.5 152.8,98.8 158.9,101.2 158.2,89.6 	"/>
	<polyline class="st29" points="120,84.9 120,84.9 152.8,98.8 158.9,101.2 158.2,89.6 120,84.9 	"/>
	<path class="st2" d="M370.8,180.2c-0.6,0.3-1.2,0.7-1.7,1c-0.2,0.1-0.2,0.3-0.1,0.5c0.1,0.2,0.3,0.2,0.5,0.1c0.6-0.3,1.2-0.7,1.7-1
		c0.2-0.1,0.2-0.3,0.1-0.5C371.2,180.2,371,180.1,370.8,180.2L370.8,180.2z"/>
	<path class="st2" d="M345.8,253.8c0,0.1,0,0.3-0.1,0.4c-0.2,1.1-0.5,2.1-1,3.1c-0.1,0.2,0,0.4,0.2,0.5c0.2,0.1,0.4,0,0.5-0.2
		c0.5-1.1,0.8-2.2,1.1-3.3c0-0.1,0.1-0.3,0.1-0.4c0-0.2-0.1-0.4-0.3-0.4C346,253.5,345.8,253.6,345.8,253.8L345.8,253.8z
		 M343.5,239.2c0.4,1.2,0.8,2.4,1.2,3.6c0.1,0.2,0.3,0.3,0.5,0.3c0.2-0.1,0.3-0.3,0.3-0.5c-0.4-1.2-0.8-2.4-1.2-3.6
		c-0.1-0.2-0.3-0.3-0.5-0.2C343.5,238.8,343.4,239,343.5,239.2z M338.5,224.9c0.3,1.2,0.6,2.5,1,3.7c0.1,0.2,0.3,0.3,0.5,0.2
		c0.2-0.1,0.3-0.3,0.2-0.5c-0.4-1.2-0.7-2.4-1-3.6c0-0.2-0.2-0.3-0.4-0.3C338.5,224.5,338.4,224.7,338.5,224.9L338.5,224.9z
		 M339.6,209.8c-0.4,1.2-0.8,2.4-1.1,3.7c0,0.2,0.1,0.4,0.3,0.4c0.2,0,0.4-0.1,0.4-0.3c0.3-1.2,0.6-2.4,1.1-3.6
		c0.1-0.2,0-0.4-0.2-0.5C339.9,209.5,339.7,209.6,339.6,209.8L339.6,209.8z M347.7,196.9c-0.9,0.9-1.7,1.9-2.5,2.9
		c-0.1,0.2-0.1,0.4,0.1,0.5c0.2,0.1,0.4,0.1,0.5-0.1c0.8-1,1.6-2,2.4-2.9c0.1-0.2,0.1-0.4,0-0.5C348,196.8,347.8,196.8,347.7,196.9
		L347.7,196.9z M359.3,187.2c-1.1,0.7-2.1,1.4-3.1,2.2c-0.2,0.1-0.2,0.4-0.1,0.5c0.1,0.2,0.4,0.2,0.5,0.1c1-0.7,2-1.5,3.1-2.2
		c0.2-0.1,0.2-0.3,0.1-0.5C359.8,187.1,359.5,187.1,359.3,187.2L359.3,187.2z"/>
	<path class="st2" d="M336.7,264.4c-0.6,0.1-1.2,0.2-1.8,0.2l-0.1,0c-0.2,0-0.4,0.2-0.4,0.4c0,0.2,0.2,0.4,0.4,0.4l0.1,0
		c0.7,0,1.3-0.1,2-0.2c0.2,0,0.3-0.2,0.3-0.4C337.1,264.5,336.9,264.4,336.7,264.4L336.7,264.4z"/>
	<path class="st2" d="M165.6,106.8c0.4,0.5,0.8,1,1.2,1.6c0.1,0.2,0.4,0.2,0.5,0.1c0.2-0.1,0.2-0.4,0.1-0.5
		c-0.4-0.5-0.8-1.1-1.2-1.6c-0.1-0.2-0.4-0.2-0.5-0.1C165.5,106.4,165.4,106.7,165.6,106.8L165.6,106.8z"/>
	<path class="st2" d="M115.4,231.1c0.4,1.2,0.8,2.5,1,3.7c0,0.2,0.2,0.3,0.4,0.3c0.2,0,0.3-0.2,0.3-0.4c-0.3-1.3-0.6-2.6-1-3.8
		c-0.1-0.2-0.3-0.3-0.5-0.2C115.4,230.7,115.3,230.9,115.4,231.1L115.4,231.1z M107.4,217.9c0.8,0.8,1.5,1.6,2.2,2.5
		c0.1,0.1,0.2,0.3,0.3,0.4c0.1,0.2,0.4,0.2,0.5,0.1c0.2-0.1,0.2-0.4,0.1-0.5c-0.1-0.1-0.2-0.3-0.3-0.4c-0.7-0.9-1.5-1.8-2.3-2.6
		c-0.1-0.1-0.4-0.2-0.5,0C107.3,217.5,107.3,217.8,107.4,217.9L107.4,217.9z M94.6,209.4c1.2,0.5,2.4,1,3.5,1.6
		c0.2,0.1,0.4,0,0.5-0.2c0.1-0.2,0-0.4-0.2-0.5c-1.2-0.6-2.4-1.1-3.6-1.6c-0.2-0.1-0.4,0-0.5,0.2C94.3,209.1,94.4,209.4,94.6,209.4z
		 M79.3,207.1c0.7,0,1.4,0,2.1,0c0.6,0,1.2,0,1.8,0c0.2,0,0.4-0.2,0.4-0.4c0-0.2-0.2-0.4-0.4-0.4c-0.6,0-1.2,0-1.9,0
		c-0.7,0-1.4,0-2.1,0c-0.2,0-0.4,0.2-0.4,0.4C79,206.9,79.1,207.1,79.3,207.1L79.3,207.1z M63.7,205.9c1.3,0.5,2.5,0.8,3.9,1
		c0.2,0,0.4-0.1,0.4-0.3c0-0.2-0.1-0.4-0.3-0.4c-1.3-0.2-2.5-0.5-3.7-0.9c-0.2-0.1-0.4,0-0.5,0.2C63.4,205.6,63.5,205.8,63.7,205.9
		L63.7,205.9z M53.5,194.3c0.4,1.3,0.9,2.5,1.5,3.7c0.1,0.2,0.3,0.3,0.5,0.2c0.2-0.1,0.3-0.3,0.2-0.5c-0.6-1.1-1.1-2.3-1.5-3.6
		c-0.1-0.2-0.3-0.3-0.5-0.2C53.5,193.9,53.4,194.1,53.5,194.3L53.5,194.3z M52.7,178.6c-0.1,1.3-0.3,2.6-0.4,3.9
		c0,0.2,0.1,0.4,0.4,0.4c0.2,0,0.4-0.1,0.4-0.4c0.1-1.3,0.2-2.6,0.4-3.9c0-0.2-0.1-0.4-0.3-0.4C53,178.3,52.8,178.4,52.7,178.6z
		 M54.9,163.1c-0.2,1.3-0.4,2.6-0.6,3.9c0,0.2,0.1,0.4,0.3,0.4c0.2,0,0.4-0.1,0.4-0.3c0.2-1.3,0.4-2.6,0.6-3.9
		c0-0.2-0.1-0.4-0.3-0.4C55.1,162.7,54.9,162.9,54.9,163.1L54.9,163.1z M58.6,147.8c-0.4,1.2-0.8,2.5-1.2,3.8
		c-0.1,0.2,0.1,0.4,0.3,0.5c0.2,0.1,0.4-0.1,0.5-0.3c0.4-1.3,0.7-2.5,1.2-3.7c0.1-0.2,0-0.4-0.2-0.5
		C58.9,147.5,58.7,147.6,58.6,147.8L58.6,147.8z M65.8,133.8c-0.8,1.1-1.5,2.2-2.2,3.3c-0.1,0.2-0.1,0.4,0.1,0.5
		c0.2,0.1,0.4,0.1,0.5-0.1c0.7-1.1,1.4-2.2,2.2-3.2c0.1-0.2,0.1-0.4-0.1-0.5C66.2,133.6,65.9,133.6,65.8,133.8L65.8,133.8z
		 M77.4,123.2c-1.2,0.6-2.3,1.4-3.3,2.2c-0.2,0.1-0.2,0.4-0.1,0.5c0.1,0.2,0.4,0.2,0.5,0.1c1-0.8,2.1-1.5,3.3-2.1
		c0.2-0.1,0.2-0.3,0.1-0.5C77.8,123.2,77.6,123.1,77.4,123.2L77.4,123.2z M92.6,119.1c-1.3,0.1-2.6,0.2-3.9,0.4
		c-0.2,0-0.3,0.2-0.3,0.4c0,0.2,0.2,0.3,0.4,0.3c1.3-0.2,2.6-0.3,3.9-0.4c0.2,0,0.4-0.2,0.4-0.4C93,119.2,92.8,119.1,92.6,119.1z
		 M108.2,120.6c-0.2,0-0.3-0.1-0.5-0.1c-1.1-0.2-2.3-0.4-3.4-0.6c-0.2,0-0.4,0.1-0.4,0.3c0,0.2,0.1,0.4,0.3,0.4
		c1.1,0.2,2.3,0.4,3.4,0.6c0.1,0,0.3,0.1,0.4,0.1c0.2,0,0.4-0.1,0.4-0.3C108.6,120.9,108.4,120.7,108.2,120.6L108.2,120.6z
		 M123.3,125.1c-1.2-0.5-2.5-0.9-3.7-1.3c-0.2-0.1-0.4,0-0.5,0.2c-0.1,0.2,0,0.4,0.2,0.5c1.2,0.4,2.5,0.9,3.7,1.3
		c0.2,0.1,0.4,0,0.5-0.2C123.6,125.4,123.5,125.2,123.3,125.1L123.3,125.1z M137.5,131.8c-1.1-0.7-2.3-1.3-3.4-1.9
		c-0.2-0.1-0.4,0-0.5,0.2c-0.1,0.2,0,0.4,0.2,0.5c1.2,0.6,2.3,1.2,3.4,1.9c0.2,0.1,0.4,0,0.5-0.1
		C137.8,132.2,137.7,131.9,137.5,131.8z M150.8,140.2c-1.1-0.6-2.2-1.3-3.3-2c-0.2-0.1-0.4-0.1-0.5,0.1c-0.1,0.2-0.1,0.4,0.1,0.5
		c1.1,0.7,2.2,1.4,3.4,2c0.2,0.1,0.4,0,0.5-0.1C151.1,140.5,151,140.3,150.8,140.2L150.8,140.2z M165.5,143.7
		c-0.9,0.2-1.9,0.3-2.8,0.3c-0.3,0-0.7,0-1,0c-0.2,0-0.4,0.1-0.4,0.3c0,0.2,0.1,0.4,0.3,0.4c0.3,0,0.7,0,1,0c1,0,2-0.1,3-0.3
		c0.2,0,0.3-0.2,0.3-0.4C165.9,143.8,165.7,143.6,165.5,143.7L165.5,143.7z M175.3,133.1c-0.3,1.3-0.7,2.5-1.3,3.6
		c-0.1,0.2,0,0.4,0.2,0.5c0.2,0.1,0.4,0,0.5-0.2c0.6-1.2,1-2.5,1.4-3.8c0-0.2-0.1-0.4-0.3-0.5C175.6,132.8,175.4,132.9,175.3,133.1z
		 M173.2,118.2c0.6,1.2,1.1,2.4,1.5,3.6c0.1,0.2,0.3,0.3,0.5,0.2c0.2-0.1,0.3-0.3,0.2-0.5c-0.4-1.3-0.9-2.5-1.5-3.7
		c-0.1-0.2-0.3-0.3-0.5-0.2C173.1,117.8,173.1,118,173.2,118.2L173.2,118.2z"/>
	<path class="st2" d="M117,246.5c-0.1,0.7-0.2,1.3-0.3,2c0,0.2,0.1,0.4,0.3,0.4c0.2,0,0.4-0.1,0.4-0.3c0.1-0.7,0.2-1.3,0.3-2
		c0-0.2-0.1-0.4-0.3-0.4C117.2,246.1,117,246.3,117,246.5L117,246.5z"/>
	<path class="st2" d="M182.1,402.6c-0.1-0.3-0.1-0.6-0.1-1c0-0.3,0-0.6,0.1-0.9c0-0.2-0.1-0.4-0.3-0.4c-0.2,0-0.4,0.1-0.4,0.3
		c-0.1,0.3-0.1,0.7-0.1,1c0,0.4,0,0.7,0.1,1.1c0,0.2,0.2,0.3,0.4,0.3C182,403,182.1,402.8,182.1,402.6L182.1,402.6z"/>
	<path class="st2" d="M346,379.9c1.3-0.5,2.5-0.9,3.8-1.2c0.2-0.1,0.3-0.3,0.3-0.5c-0.1-0.2-0.3-0.3-0.5-0.3
		c-1.3,0.3-2.6,0.7-3.9,1.2c-0.2,0.1-0.3,0.3-0.2,0.5C345.6,379.9,345.8,380,346,379.9z M332.3,387.9c1-0.8,2.1-1.6,3.2-2.4
		c0.2-0.1,0.2-0.4,0.1-0.5c-0.1-0.2-0.4-0.2-0.5-0.1c-1.1,0.8-2.2,1.6-3.2,2.4c-0.2,0.1-0.2,0.4-0.1,0.5
		C331.9,388,332.1,388,332.3,387.9L332.3,387.9z M321,399.2c0.9-1,1.8-2,2.6-3c0.1-0.2,0.1-0.4,0-0.5c-0.2-0.1-0.4-0.1-0.5,0
		c-0.9,1-1.8,2-2.7,3c-0.1,0.2-0.1,0.4,0,0.5C320.6,399.4,320.8,399.4,321,399.2L321,399.2z M310.7,411.6c0.9-1,1.7-2,2.6-3.1
		c0.1-0.2,0.1-0.4-0.1-0.5c-0.2-0.1-0.4-0.1-0.5,0.1c-0.9,1-1.7,2.1-2.6,3.1c-0.1,0.2-0.1,0.4,0,0.5
		C310.3,411.7,310.6,411.7,310.7,411.6L310.7,411.6z M299.4,423.1c1-0.9,2-1.8,3-2.7c0.2-0.1,0.2-0.4,0-0.5c-0.1-0.2-0.4-0.2-0.5,0
		c-1,0.9-2,1.8-3,2.7c-0.2,0.1-0.2,0.4,0,0.5C299,423.2,299.3,423.2,299.4,423.1L299.4,423.1z M285.8,431.7c1.2-0.6,2.4-1.2,3.6-1.8
		c0.2-0.1,0.2-0.3,0.2-0.5c-0.1-0.2-0.3-0.2-0.5-0.2c-1.2,0.6-2.4,1.2-3.6,1.8c-0.2,0.1-0.3,0.3-0.2,0.5
		C285.4,431.7,285.6,431.8,285.8,431.7L285.8,431.7z M270.4,436.5c1.3-0.2,2.6-0.5,4-0.8c0.2,0,0.3-0.3,0.3-0.5
		c0-0.2-0.3-0.3-0.5-0.3c-1.3,0.3-2.6,0.6-3.9,0.8c-0.2,0-0.3,0.2-0.3,0.4C270,436.4,270.2,436.5,270.4,436.5L270.4,436.5z
		 M254.3,437.2c1.3,0.1,2.7,0.2,4,0.2c0.2,0,0.4-0.2,0.4-0.4c0-0.2-0.2-0.4-0.4-0.4c-1.3,0-2.7-0.1-4-0.2c-0.2,0-0.4,0.1-0.4,0.3
		C253.9,437,254.1,437.2,254.3,437.2z M238.6,433.6c1.3,0.5,2.5,0.9,3.8,1.3c0.2,0.1,0.4-0.1,0.5-0.3c0.1-0.2-0.1-0.4-0.3-0.5
		c-1.3-0.4-2.5-0.8-3.8-1.3c-0.2-0.1-0.4,0-0.5,0.2C238.3,433.3,238.4,433.6,238.6,433.6L238.6,433.6z M224.3,426.1
		c1.1,0.8,2.2,1.5,3.4,2.2c0.2,0.1,0.4,0.1,0.5-0.1c0.1-0.2,0.1-0.4-0.1-0.5c-1.1-0.7-2.2-1.4-3.3-2.2c-0.2-0.1-0.4-0.1-0.5,0.1
		C224.1,425.7,224.2,426,224.3,426.1L224.3,426.1z M212.5,415.2c0.9,1,1.8,2,2.7,3c0.1,0.1,0.4,0.2,0.5,0c0.1-0.1,0.2-0.4,0-0.5
		c-0.9-1-1.8-2-2.7-3c-0.1-0.2-0.4-0.2-0.5,0C212.4,414.8,212.3,415,212.5,415.2L212.5,415.2z M203.3,401.9c0.8,1.1,1.5,2.2,2.3,3.3
		c0.1,0.2,0.3,0.2,0.5,0.1c0.2-0.1,0.2-0.3,0.1-0.5c-0.7-1.1-1.5-2.3-2.3-3.3c-0.1-0.2-0.4-0.2-0.5-0.1
		C203.2,401.5,203.2,401.8,203.3,401.9L203.3,401.9z M190.4,394.1l0.2,0c1.2,0,2.5,0.2,3.7,0.6c0.2,0.1,0.4,0,0.5-0.2
		c0.1-0.2,0-0.4-0.2-0.5c-1.3-0.4-2.6-0.7-3.9-0.7l-0.2,0c-0.2,0-0.4,0.2-0.4,0.4C190,393.9,190.2,394.1,190.4,394.1L190.4,394.1z"
		/>
	<path class="st2" d="M361.6,378.1c0.6,0.1,1.3,0.2,1.9,0.4c0.2,0,0.4-0.1,0.5-0.3c0-0.2-0.1-0.4-0.3-0.5c-0.7-0.2-1.3-0.3-2-0.4
		c-0.2,0-0.4,0.1-0.4,0.3C361.3,377.9,361.4,378.1,361.6,378.1L361.6,378.1z"/>
	<path class="st2" d="M309.1,116.9c1.2,0.5,2.4,1.1,3.5,1.8c0.2,0.1,0.4,0.1,0.5-0.1c0.1-0.2,0.1-0.4-0.1-0.5
		c-1.1-0.7-2.4-1.4-3.6-1.9c-0.2-0.1-0.4,0-0.5,0.2C308.8,116.6,308.9,116.8,309.1,116.9z M293.5,114.7c0.1,0,0.2,0,0.3,0
		c1.2,0,2.4,0,3.6,0.1c0.2,0,0.4-0.2,0.4-0.4c0-0.2-0.2-0.4-0.4-0.4c-1.2-0.1-2.4-0.1-3.7-0.1c-0.1,0-0.2,0-0.3,0
		c-0.2,0-0.4,0.2-0.4,0.4C293.1,114.5,293.2,114.7,293.5,114.7z M277.4,114.2c1.3,0.2,2.7,0.3,4,0.4c0.2,0,0.4-0.1,0.4-0.3
		c0-0.2-0.1-0.4-0.3-0.4c-1.3-0.1-2.6-0.2-3.9-0.4c-0.2,0-0.4,0.1-0.4,0.3C277.1,114,277.2,114.2,277.4,114.2L277.4,114.2z
		 M263.2,107.1c0.1,0.1,0.2,0.2,0.2,0.3c0.8,1,1.7,1.8,2.7,2.5c0.2,0.1,0.4,0.1,0.5-0.1c0.1-0.2,0.1-0.4-0.1-0.5
		c-0.9-0.7-1.8-1.5-2.6-2.4l-0.2-0.3c-0.1-0.2-0.4-0.2-0.5-0.1C263.1,106.7,263.1,106.9,263.2,107.1L263.2,107.1z M256.1,92.7
		l0.1,0.1c0.6,1.1,1.1,2.3,1.6,3.5c0.1,0.2,0.3,0.3,0.5,0.2c0.2-0.1,0.3-0.3,0.2-0.5c-0.5-1.2-1-2.4-1.6-3.5l-0.1-0.1
		c-0.1-0.2-0.3-0.3-0.5-0.2C256.1,92.3,256,92.6,256.1,92.7L256.1,92.7z M243.9,85c0.6-0.1,1.1-0.2,1.7-0.2c0.7,0,1.4,0.1,2.1,0.3
		c0.2,0.1,0.4-0.1,0.5-0.3c0.1-0.2-0.1-0.4-0.3-0.5c-0.8-0.2-1.5-0.3-2.3-0.3c-0.6,0-1.2,0.1-1.8,0.2c-0.2,0-0.3,0.2-0.3,0.4
		C243.5,84.9,243.7,85,243.9,85L243.9,85z"/>
	
		<rect x="199.7" y="154.5" transform="matrix(0.3899 -0.9209 0.9209 0.3899 -13.4592 290.6583)" class="st17" width="25.9" height="2"/>
	<path class="st14" d="M197.8,190.9L197.8,190.9c-2.7-1.1-3.9-4.2-2.8-6.8l9.4-22.2c1.1-2.7,4.2-3.9,6.8-2.8
		c2.7,1.1,3.9,4.2,2.8,6.8l-9.4,22.2C203.5,190.8,200.4,192.1,197.8,190.9z"/>
	<path class="st10" d="M252.1,130.4l-3.2-1.4c-1.9,4.4-4.9,7.9-8.6,10.3c-3.7,2.4-8.1,3.7-12.5,3.7c-3,0-6-0.6-8.9-1.8
		c-4.4-1.9-7.9-4.9-10.3-8.6c-2.4-3.7-3.7-8.1-3.7-12.5c0-3,0.6-6,1.8-8.9c1.9-4.4,4.9-7.9,8.6-10.3c3.7-2.4,8.1-3.7,12.5-3.7
		c3,0,6,0.6,8.9,1.8c4.4,1.9,7.9,4.9,10.3,8.6c2.4,3.7,3.7,8.1,3.7,12.5c0,3-0.6,6-1.8,8.9L252.1,130.4l3.2,1.4
		c1.6-3.8,2.4-7.8,2.4-11.7c0-5.8-1.7-11.5-4.8-16.3c-3.1-4.8-7.7-8.8-13.4-11.2c-3.8-1.6-7.8-2.4-11.7-2.4
		c-5.8,0-11.5,1.7-16.3,4.8c-4.8,3.1-8.8,7.7-11.2,13.4c-1.6,3.8-2.4,7.8-2.4,11.7c0,5.8,1.7,11.5,4.8,16.3
		c3.1,4.8,7.7,8.8,13.4,11.2c3.8,1.6,7.8,2.4,11.7,2.4c5.8,0,11.5-1.7,16.3-4.8c4.8-3.1,8.8-7.7,11.2-13.4L252.1,130.4"/>
	<path class="st30" d="M248.7,128.5c-4.9,11.5-18.1,16.8-29.6,12c-11.5-4.9-16.8-18.1-12-29.6c4.9-11.5,18.1-16.8,29.6-12
		C248.2,103.8,253.5,117,248.7,128.5"/>
	<path class="st31" d="M224.7,102.6c-4.9,0-8.9,3.3-8.9,7.3c0,4.1,4,7.3,8.9,7.3c4.9,0,8.9-3.3,8.9-7.3
		C233.6,105.8,229.6,102.6,224.7,102.6"/>
	<text transform="matrix(0.9955 -9.452909e-02 9.452909e-02 0.9955 270.4419 91.3928)" class="st14 st32 st33">Offer to School</text>
	<ellipse id="XMLID_8031_" class="st34" cx="351.6" cy="396.9" rx="34.8" ry="20.1"/>
	<g id="XMLID_7207_">
		<ellipse id="XMLID_7240_" class="st35" cx="351.6" cy="393.2" rx="23.3" ry="13.5"/>
		<path id="XMLID_7239_" class="st36" d="M363.5,333.8V297h-23.9v36.9c-14,4.9-24,18.2-24,33.9c0,19.9,16.1,36,36,36
			c19.9,0,36-16.1,36-36C387.5,352.1,377.5,338.8,363.5,333.8z"/>
		<path id="XMLID_7234_" class="st37" d="M383.3,367.8c0,17.5-14.2,31.7-31.7,31.7c-17.5,0-31.7-14.2-31.7-31.7
			c0-4.5,0.9-8.7,2.6-12.6c1.3-3,3.9-5.8,7.9-8.1c11.7-6.8,30.7-6.8,42.4,0c4,2.3,6.7,5.1,7.9,8.1
			C382.4,359,383.3,363.3,383.3,367.8z"/>
		<path id="XMLID_7233_" class="st38" d="M383.3,367.8c0-4.4-0.9-8.6-2.5-12.4c-2.5,4.3-9.9,17.2-9.9,17.2
			c0,11.5-8.3,26.9-19.3,26.9C369.1,399.5,383.3,385.3,383.3,367.8z"/>
		<path id="XMLID_7232_" class="st39" d="M372.8,371.5c-11.7,6.8-30.7,6.8-42.4,0c-7.7-4.4-10.3-10.7-7.9-16.4
			c1.3-3,3.9-5.8,7.9-8.1c11.7-6.8,30.7-6.8,42.4,0c4,2.3,6.7,5.1,7.9,8.1C383.1,360.8,380.5,367.1,372.8,371.5z"/>
		<path id="XMLID_7231_" class="st40" d="M361.2,402.4c-17.7,4-37.9-8.5-37.9-34.6c0-20.8,22.6-30.8,22.6-30.8v-40h-6.3v36.9
			c-14,4.9-24,18.2-24,33.9c0,19.9,16.1,36,36,36C354.9,403.7,358.2,403.2,361.2,402.4z"/>
		<path id="XMLID_7228_" class="st35" d="M365.4,296.7c-0.8-1.5-2.2-2.9-4-3.9c-2.7-1.5-6.1-2.4-9.8-2.4c-3.7,0-7.1,0.8-9.8,2.4
			c-1.8,1.1-3.2,2.4-4,3.9h-0.9v3.3h0c0,2.8,1.8,5.4,4.9,7.2c2.7,1.5,6.1,2.4,9.8,2.4c3.7,0,7.1-0.8,9.8-2.4
			c3.1-1.8,4.9-4.4,4.9-7.2v-3.3H365.4z"/>
		<path id="XMLID_7216_" class="st36" d="M351.6,306.6c-3.7,0-7.1-0.8-9.8-2.4c-3.1-1.8-4.9-4.4-4.9-7.2s1.8-5.4,4.9-7.2
			c2.7-1.5,6.1-2.4,9.8-2.4c3.7,0,7.1,0.8,9.8,2.4c3.1,1.8,4.9,4.4,4.9,7.2c0,2.8-1.8,5.4-4.9,7.2
			C358.7,305.7,355.2,306.6,351.6,306.6z"/>
		<ellipse id="XMLID_7210_" class="st35" cx="351.6" cy="297" rx="12" ry="6.9"/>
	</g>
	<path id="XMLID_8033_" class="st34" d="M83.4,431.5l42.8,24.7c0.7,0.4,1.9,0.4,2.7,0l66.6-38.5c0.7-0.4,0.7-1.1,0-1.6l-42.8-24.7
		c-0.7-0.4-1.9-0.4-2.7,0L83.4,430C82.7,430.4,82.7,431.1,83.4,431.5z"/>
	<g id="XMLID_7264_">
		<g id="XMLID_7446_">
			<path id="XMLID_7449_" class="st41" d="M193.3,410.2v5.2l-65.9,38c0,0,0-2.3,0-5.2c0-2.9,2.9-6.8,6.4-8.9l53.1-30.7
				c2.1-1.2,4-1.5,5.2-0.8C192.9,408.2,193.3,409,193.3,410.2z"/>
			<path id="XMLID_7448_" class="st42" d="M150.4,383.7L150.4,383.7L150.4,383.7c-1.3-0.7-3.2-0.5-5.3,0.8l-53.1,30.7
				c-3.5,2-6.4,6-6.4,8.9c0,2.9,0,5.2,0,5.2l41.9,24.2c0,0,0-2.3,0-5.2c0-2.9,2.9-6.8,6.4-8.9l53.1-30.7c2.1-1.2,4-1.5,5.2-0.8
				L150.4,383.7z"/>
		</g>
		<g id="XMLID_7432_">
			<g id="XMLID_7439_">
				<polygon id="XMLID_7445_" class="st43" points="158.9,414.5 158.9,407.6 134.9,393.7 134.9,400.7 				"/>
				<polygon id="XMLID_7442_" class="st41" points="158.9,414.5 176.8,404.1 176.8,397.2 158.9,407.6 				"/>
				<polygon id="XMLID_7441_" class="st44" points="134.9,393.7 152.9,383.4 176.8,397.2 158.9,407.6 				"/>
			</g>
			<g id="XMLID_7433_">
				<polygon id="XMLID_7438_" class="st45" points="145.2,392.6 152.9,388.2 166.5,396 158.9,400.5 				"/>
				<polygon id="XMLID_7436_" class="st35" points="145.2,392.6 145.2,393.7 158.9,401.6 158.9,400.5 				"/>
				<polygon id="XMLID_7435_" class="st46" points="166.5,396 158.9,400.5 158.9,401.6 166.5,397.2 				"/>
			</g>
		</g>
		<g id="XMLID_7402_">
			<path id="XMLID_7429_" class="st47" d="M160.2,362L160.2,362l-2.6-3.8c0.4,0.6,0.7,1.4,0.8,2.2c0.1,0.9-0.1,2-0.4,3
				c-0.2,0.5-0.4,1.1-0.7,1.6c-0.4,0.7-0.8,1.3-1.3,1.9c-2.9,3.8-7.9,6.9-12.6,7.8c-0.8,0.1-1.5,0.2-2.3,0.3c-0.5,0-1.1,0-1.5-0.1
				c-1.2-0.1-2.3-0.5-3.1-1c-0.7-0.4-1.3-1-1.7-1.7l2.2,3.9c0.1,0.1,0.1,0.2,0.2,0.3c0,0,0,0,0,0c1.1,1.7,3.3,2.7,6.3,2.7
				c0.8,0,1.6-0.1,2.5-0.3c4.7-0.9,9.7-4,12.6-7.8c0.5-0.7,1-1.4,1.4-2.1C161.3,366.2,161.4,363.7,160.2,362z"/>
			<path id="XMLID_7428_" class="st47" d="M162.1,377l-1.8-2.9c0.3,0.5,0.4,1.1,0.3,1.8c-0.1,0.6-0.3,1.2-0.6,1.8
				c-0.2,0.4-0.4,0.8-0.7,1.1c-1.6,2.1-4.3,3.7-6.9,4.2c-0.4,0.1-0.9,0.1-1.3,0.1c-0.7,0-1.4-0.1-1.9-0.3c-0.7-0.2-1.2-0.6-1.5-1.2
				l1.9,3.1v0h0c0.6,0.9,1.8,1.5,3.4,1.4c3.3-0.1,7.3-2.6,8.9-5.5C162.6,379.2,162.7,377.9,162.1,377z"/>
			<path id="XMLID_7413_" class="st42" d="M158.4,360.3c-0.1-0.8-0.3-1.6-0.8-2.2l-21.4-31.7l-20.1,12.4l18.6,33.4
				c0.4,0.7,0.9,1.3,1.7,1.7c0.8,0.5,1.9,0.9,3.1,1c0.5,0.1,1,0.1,1.5,0.1c0.8,0,1.5-0.1,2.3-0.3c4.7-0.9,9.7-4,12.6-7.8
				c0.5-0.6,0.9-1.3,1.3-1.9c0.3-0.6,0.5-1.1,0.7-1.6C158.3,362.3,158.5,361.3,158.4,360.3z"/>
			<path id="XMLID_7412_" class="st41" d="M160.3,374.1L160.3,374.1L160.3,374.1l-0.1-0.1l-1.8-2.9c-2.9,3.8-7.9,6.8-12.6,7.8
				l1.8,2.9c0.3,0.5,0.8,0.9,1.5,1.2c0.5,0.2,1.2,0.3,1.9,0.3c0.4,0,0.9-0.1,1.3-0.1c2.6-0.5,5.3-2.2,6.9-4.2
				c0.3-0.4,0.5-0.7,0.7-1.1c0.4-0.6,0.6-1.3,0.6-1.8C160.7,375.2,160.6,374.6,160.3,374.1z"/>
		</g>
		<g id="XMLID_7380_">
			<path id="XMLID_7401_" class="st35" d="M136.4,415.3v8.6l-15,8.6c0,0,0-3.9,0-8.6c0-4.8,3.4-10.6,7.5-13c2.1-1.2,4-1.3,5.3-0.5
				C135.6,411.3,136.4,413,136.4,415.3z"/>
			<path id="XMLID_7400_" class="st36" d="M116.4,400.2l-0.1-0.1c-1.3-0.8-3.2-0.6-5.3,0.5c-4.1,2.4-7.5,8.2-7.5,13s0,8.6,0,8.6
				l18,10.4c0,0,0-3.9,0-8.6c0-4.8,3.4-10.6,7.5-13c2-1.1,3.8-1.3,5.1-0.6L116.4,400.2z"/>
			<path id="XMLID_7399_" class="st47" d="M129,416.7c1.7-1,3-0.2,3,1.7c0,1.9-1.3,4.2-3,5.2c-1.7,1-3,0.2-3-1.7
				C126,419.9,127.3,417.6,129,416.7z"/>
		</g>
		<g id="XMLID_7312_">
			<path id="XMLID_7315_" class="st41" d="M122.1,385.2c0-6.1,2-11.3,4.5-15.3c-0.9,0-1.8-0.2-2.5-0.6v0l-0.1-0.1l-3-1.7
				c-1.6-1-2.5-2.9-2.5-5.7c0-1.6,0.3-3.3,0.9-5c0.7-2.2,1.9-4.4,3.4-6.3c-0.4,0.4-3,3.5-5.9,8.6v0c-0.8,1.4-1.6,3-2.3,4.7
				c-2.7,6.2-5.1,14.3-5.1,23.9c0,6.5,0.7,12.1,1.8,16.8c2.6,11.5,7,17.5,7.2,17.7l0,0c0-4.8,3.4-10.6,7.5-13c2-1.1,3.8-1.3,5.1-0.6
				C131.1,408.7,122.1,400.8,122.1,385.2z"/>
			<path id="XMLID_7314_" class="st36" d="M119,337l-0.1-0.1c-1.6-0.9-3.9-0.8-6.4,0.6c-5,2.9-9,9.8-9,15.6c0,0.5,0,1.1,0.1,1.5
				c3.3-6.7,6.7-10.6,7.1-11.1c0,0,0,0,0-0.1c1.4-1.8,3-3.2,4.7-4.2c0.9-0.5,1.8-0.9,2.6-1.1c0.7-0.2,1.4-0.2,2.1-0.1
				c0.7,0.1,1.3,0.3,1.8,0.6L119,337z"/>
			<path id="XMLID_7313_" class="st43" d="M122,338.7c-0.5-0.3-1.1-0.5-1.8-0.6c-0.6-0.1-1.3-0.1-2.1,0.1c-0.8,0.2-1.7,0.5-2.6,1.1
				c-1.7,1-3.3,2.5-4.7,4.2c0,0,0,0,0,0.1c-0.4,0.5-3.9,4.4-7.1,11.1c-3.1,6.4-6.1,15.3-6.1,26.1c0,22.9,9,34.6,9,34.6l12,6.9
				c-0.2-0.3-4.6-6.2-7.2-17.7c-1-4.7-1.8-10.3-1.8-16.8c0-9.6,2.3-17.7,5.1-23.9c0.8-1.7,1.5-3.3,2.3-4.7v0
				c2.8-5.2,5.5-8.2,5.9-8.6c0,0,0,0,0-0.1c0.3-0.3,0.5-0.7,0.8-1c1.2-1.3,2.5-2.4,3.9-3.2c2.5-1.5,4.8-1.6,6.5-0.6L122,338.7z"/>
		</g>
		<g id="XMLID_7291_">
			<path id="XMLID_7307_" class="st36" d="M133.9,345.6c-1.6-1-3.9-0.9-6.5,0.6c-1.4,0.8-2.7,1.9-3.9,3.2c-0.3,0.3-0.6,0.6-0.8,1
				c0,0,0,0,0,0.1c-1.5,1.9-2.6,4.1-3.4,6.3c-0.6,1.7-0.9,3.4-0.9,5c0,2.8,1,4.8,2.5,5.7l3,1.7c-0.5-0.3-0.9-0.7-1.2-1.1
				c-0.8-1.1-1.3-2.7-1.3-4.6c0-5.7,4-12.7,9-15.6c1.7-1,3.3-1.4,4.7-1.2c0.6,0.1,1.2,0.3,1.7,0.6l0,0L133.9,345.6z"/>
			<path id="XMLID_7293_" class="st35" d="M136.9,347.3c-0.5-0.3-1.1-0.5-1.7-0.6c-1.4-0.2-3,0.2-4.7,1.2c-5,2.9-9,9.8-9,15.6
				c0,2,0.5,3.5,1.3,4.6c0.3,0.5,0.8,0.8,1.2,1.1c0,0,0.1,0.1,0.1,0.1c0.7,0.4,1.5,0.6,2.5,0.6c1.2,0,2.5-0.4,3.9-1.2
				c5-2.9,9-9.8,9-15.6C139.4,350.3,138.5,348.3,136.9,347.3z"/>
			<path id="XMLID_7292_" class="st47" d="M130.5,354.1c2-1.2,3.6-0.2,3.6,2.1c0,2.3-1.6,5.1-3.6,6.3c-2,1.2-3.6,0.2-3.6-2.1
				C126.8,358.1,128.5,355.3,130.5,354.1z"/>
		</g>
		
			<ellipse id="XMLID_7290_" transform="matrix(0.2305 -0.9731 0.9731 0.2305 -226.5875 378.7046)" class="st42" cx="126.1" cy="332.6" rx="11.8" ry="11.8"/>
		<g id="XMLID_7265_">
			<path id="XMLID_7289_" class="st41" d="M127.2,324.2l-6.2-10.1l-9,5.5l6.2,10.1l0,0c0.4,0.7,1.3,1.1,2.4,1
				c2.4-0.1,5.2-1.8,6.3-3.9C127.5,325.8,127.6,324.9,127.2,324.2z"/>
			<path id="XMLID_7287_" class="st47" d="M112,319.6l9-5.5c0,0,0.8,1.2,1.2,1.9c0.4,0.7,0.4,1.6-0.2,2.6c-1.1,2.1-4,3.8-6.3,3.9
				c-1.2,0-2-0.4-2.4-1C112.7,320.9,112,319.6,112,319.6z"/>
			<path id="XMLID_7286_" class="st48" d="M112.2,317c1.1-2.1,4-3.8,6.3-3.9c2.4-0.1,3.4,1.6,2.3,3.7c-1.1,2.1-4,3.8-6.3,3.9
				C112.1,320.7,111,319.1,112.2,317z"/>
			<path id="XMLID_7284_" class="st41" d="M114.3,316.9c0.6-1,2-1.9,3.2-1.9c1.2,0,1.7,0.8,1.1,1.8c-0.6,1-2,1.9-3.2,1.9
				C114.3,318.8,113.8,318,114.3,316.9z"/>
		</g>
	</g>
</g>
<g id="DESIGNED_BY_FREEPIK">
</g>
</svg>
