<?xml version="1.0" encoding="utf-8"?>
<!-- Generator: Adobe Illustrator 23.0.1, SVG Export Plug-In . SVG Version: 6.00 Build 0)  -->
<svg version="1.1" xmlns="http://www.w3.org/2000/svg" xmlns:xlink="http://www.w3.org/1999/xlink" x="0px" y="0px"
	 viewBox="0 0 500 500" style="enable-background:new 0 0 500 500;" xml:space="preserve">
<style type="text/css">
	.st0{fill:#FFFFFF;}
	.st1{opacity:0.22;fill:#1983FD;}
	.st2{fill:#DCE6EF;}
	.st3{fill:none;stroke:#6AA5FE;stroke-width:0.8675;stroke-linecap:round;stroke-linejoin:round;stroke-miterlimit:10;}
	.st4{fill:#1A55B5;}
	.st5{fill:none;stroke:#2A294F;stroke-width:0.7798;stroke-linecap:round;stroke-linejoin:round;stroke-miterlimit:10;}
	.st6{fill:none;stroke:#6AA5FE;stroke-linecap:round;stroke-linejoin:round;stroke-miterlimit:10;}
	.st7{fill:#6AA5FE;}
	.st8{fill:#527EE9;}
	.st9{fill:#2C6BC6;}
	.st10{fill:#CDE1F9;}
	.st11{fill:none;stroke:#1A55B5;stroke-miterlimit:10;}
	.st12{fill:none;stroke:#F3F4F6;stroke-width:4;stroke-miterlimit:10;}
	.st13{fill:none;stroke:#1983FD;stroke-width:4;stroke-miterlimit:10;}
	.st14{fill:#FF746F;}
	.st15{fill:#2A294F;}
	.st16{fill:#FE9280;}
	.st17{fill:#E86767;}
	.st18{fill:#FFFFFF;}
	.st19{fill:#1983FD;}
	.st20{fill:#3680C9;}
	.st21{fill:none;stroke:#3F3D56;stroke-width:4;stroke-miterlimit:10;}
	.st22{opacity:0.1;enable-background:new    ;}
</style>
<g id="BACKGROUND">
	<rect class="st0" width="500" height="500"/>
</g>
<g id="OBJECTS">
	<path id="XMLID_9_" class="st1" d="M191,18c-15.6-5.5-30.3-9.6-44.6-12.2c-34.5-6.3-67.9,10.3-83.2,35.1
		c-22.7,36.7,27.1,64.3,17.1,94.2c-10,30-71.1,33.3-59.2,85.1c11.9,51.9,64,70.3,59.6,111.3c-4.4,41.1,39.9,81.5,128.5,56.4
		c88.6-25.1,219.4-80.2,183.7-127.7c-35.7-47.5-73.4-62-42.1-94.4c31.3-32.4,82-91.4,39.9-131.4c-42.1-40-149.1-6.5-168.6-7.6
		C209.9,26.2,201.3,21.7,191,18z"/>
	<g>
		<path class="st2" d="M459.7,351.5c-3.7-9.4-6.4-19.4-9.4-30c-2-7.1-5.3-15.1-12.3-17.3c-6.9-2.2-14.2,2.3-18.5,8.2
			c-4.2,5.8-6.3,12.9-9.9,19.1c-6.5,11.3-18.1,16-27.7,6.1c-13.7-14.2-19.8-33.5-28.5-50.8c-6.3-12.5-11.6-27.2-19.5-38.8
			c-12.1-17.6-28.7-32.7-50.7-32.7c-14,2.1-26.3,14.5-34.6,30c-8.3,15.5-13.2,33.9-17.3,52.2c-7.5,33.4-13.1,67.5-18.6,101.6
			c0,0,278.1-3.2,278.1-3.2c-1.1,0-7.9-9.1-9.2-10.4C470.9,375.2,464.5,363.8,459.7,351.5z"/>
		<g>
			<path class="st3" d="M418.3,336.9"/>
			<path class="st3" d="M385.1,396.4"/>
		</g>
		<g>
			<path class="st4" d="M439,356.2c-0.8,1.5-2.4,2.5-3.8,3.3c-1.7,1-3.6,1.8-5.4,2.7c-2.3,1.1-4.7,2.2-6.9,3.6c-1.6,1-3,2.1-4.2,3.4
				c1.9-4.3,4.1-8,6.7-11.4c3.4-4.4,6.9-6.6,10.4-6.6c0.1,0,0.2,0,0.2,0c1.1,0,1.9,0.3,2.5,0.8C439.7,352.9,439.7,354.9,439,356.2z"
				/>
			<path class="st4" d="M442.9,380.7c-1.4,1-3.2,1.2-4.8,1.4c-2,0.1-4,0.1-6,0.1c-2.5,0-5.2,0-7.7,0.3c-1.9,0.2-3.7,0.6-5.3,1.2
				c3.5-3.1,7.1-5.5,10.9-7.4c5-2.5,9.1-3,12.3-1.5c0.1,0,0.1,0.1,0.2,0.1c1,0.5,1.6,1.1,1.9,1.8C445,378,444.1,379.8,442.9,380.7z"
				/>
			<path class="st4" d="M433.6,392.7c-1.2-0.2-2.2-0.9-3-1.6c-1.1-0.9-2.1-1.8-3-2.8c-1.3-1.2-2.6-2.4-4-3.5c-1-0.8-2.1-1.4-3.2-1.8
				c3.2,0.1,6.1,0.6,8.9,1.4c3.7,1.1,5.9,2.8,6.8,5c0,0.1,0,0.1,0.1,0.2c0.3,0.7,0.3,1.3,0.1,1.8
				C435.9,392.3,434.6,392.8,433.6,392.7z"/>
			<path class="st5" d="M407.3,396.6c0,0,0.1-23.1,28.3-42.7"/>
			<path class="st5" d="M407.3,396.6c0,0,8.7-18.6,32.2-18.6"/>
			<path class="st5" d="M420.1,383.2c0,0,4.5-0.3,14,6.8"/>
		</g>
	</g>
	<g>
		<path class="st2" d="M164.8,396.8c-6.5-24.7-13.1-49.3-20.8-73.2c-4.3-13.5-9.1-26.9-15.7-37.7c-6.6-10.8-15.4-18.7-24.2-18.7
			c-13.6,2.6-22.3,16-28.1,30.9c-3.8,9.7-5.6,21.5-8.3,31.8c-3.7,14.2-5.6,29.6-12.7,42c-4.9,8.7-12.5,6.5-17.6-1.3
			c-2.8-4.3-4.8-9.4-8-13.4c-3.2-3.9-8.1-6.5-12.2-4c-4.1,2.5-5.4,9-5.9,14.6c-0.8,8.4-1.5,16.3-2.9,23.9c-0.3,1.7-0.6,3.3-1,4.9
			H164.8z"/>
		<path class="st6" d="M88.2,396.4"/>
		<path class="st6" d="M56.6,303.4"/>
		<g>
			<path class="st7" d="M31.2,362.8c0.4-0.4,1.1-0.6,1.9-0.6c0.1,0,0.1,0,0.2,0c2.7,0,5.3,1.7,7.9,5c2,2.5,3.6,5.4,5.1,8.6
				c-0.9-0.9-2-1.8-3.2-2.5c-1.7-1-3.5-1.9-5.2-2.7c-1.4-0.6-2.8-1.3-4.1-2c-1.1-0.6-2.2-1.4-2.9-2.5
				C30.3,365.1,30.3,363.6,31.2,362.8z"/>
			<path class="st7" d="M26.8,381.5c0.2-0.5,0.7-1,1.5-1.4c0.1,0,0.1-0.1,0.2-0.1c2.4-1.1,5.5-0.7,9.3,1.2c2.9,1.4,5.6,3.3,8.3,5.6
				c-1.2-0.4-2.6-0.8-4-0.9c-1.9-0.2-3.9-0.2-5.9-0.2c-1.5,0-3,0-4.6-0.1c-1.2-0.1-2.6-0.3-3.7-1C27,383.9,26.3,382.5,26.8,381.5z"
				/>
			<path class="st7" d="M32.9,392.6c-0.1-0.4-0.1-0.8,0.1-1.4c0,0,0-0.1,0-0.1c0.7-1.7,2.4-3,5.2-3.8c2.1-0.6,4.3-1,6.7-1.1
				c-0.8,0.3-1.6,0.8-2.4,1.4c-1.1,0.8-2.1,1.7-3,2.6c-0.7,0.7-1.5,1.4-2.3,2.1c-0.6,0.5-1.4,1.1-2.3,1.2
				C34.1,393.7,33.2,393.4,32.9,392.6z"/>
			<path class="st5" d="M54.8,396.6c0,0-0.1-17.5-21.4-32.3"/>
			<path class="st5" d="M54.8,396.6c0,0-6.6-14-24.3-14"/>
			<path class="st5" d="M45.1,386.5c0,0-3.4-0.3-10.6,5.2"/>
		</g>
	</g>
	<g>
		<path class="st7" d="M283.7,396.6H95.6c-5.2,0-9.4-4.2-9.4-9.4V132c0-5.2,4.2-9.4,9.4-9.4h188.2c5.2,0,9.4,4.2,9.4,9.4v255.1
			C293.2,392.4,289,396.6,283.7,396.6z"/>
		<path class="st8" d="M86.1,189.3v197.8c0,5.2,4.2,9.4,9.4,9.4h188.2c5.2,0,9.4-4.2,9.4-9.4v-39L86.1,189.3z"/>
		<path class="st0" d="M277.3,384H102c-2.1,0-3.9-1.7-3.9-3.9v-241c0-2.1,1.7-3.9,3.9-3.9h175.3c2.1,0,3.9,1.7,3.9,3.9v241
			C281.2,382.2,279.4,384,277.3,384z"/>
		<g>
			<path class="st4" d="M205.4,117.4c0-0.3,0-0.5,0-0.8c0-8.7-7-15.7-15.7-15.7s-15.7,7-15.7,15.7c0,0.3,0,0.5,0,0.8h-23.1v24h77.7
				v-24H205.4z"/>
			<polygon class="st9" points="150.8,117.4 150.8,141.4 228.5,141.4 			"/>
			<ellipse transform="matrix(0.923 -0.3848 0.3848 0.923 -30.261 81.948)" class="st8" cx="189.7" cy="116.6" rx="8.8" ry="8.8"/>
			<path class="st7" d="M183.4,110.3c-3.5,3.5-3.5,9,0,12.5c3.5,3.5,9,3.5,12.5,0L183.4,110.3z"/>
			<rect x="150.8" y="141.4" class="st10" width="77.7" height="1.7"/>
		</g>
	</g>
	<g>
		<g>
			<rect x="119.3" y="174.6" class="st11" width="29.5" height="29.5"/>
			<g>
				<g>
					<polyline class="st12" points="127.9,190.8 136.9,197.9 155.2,180.2 					"/>
				</g>
				<g>
					<polyline class="st13" points="125.9,188.8 134.9,195.9 153.2,178.2 					"/>
				</g>
			</g>
			<g>
				<path class="st7" d="M258.9,182.9h-96c-0.6,0-1.1-0.5-1.1-1.1l0,0c0-0.6,0.5-1.1,1.1-1.1h96c0.6,0,1.1,0.5,1.1,1.1l0,0
					C260,182.4,259.5,182.9,258.9,182.9z"/>
				<path class="st7" d="M258.9,187.9h-96c-0.6,0-1.1-0.5-1.1-1.1l0,0c0-0.6,0.5-1.1,1.1-1.1h96c0.6,0,1.1,0.5,1.1,1.1l0,0
					C260,187.4,259.5,187.9,258.9,187.9z"/>
				<path class="st7" d="M258.9,192.9h-96c-0.6,0-1.1-0.5-1.1-1.1l0,0c0-0.6,0.5-1.1,1.1-1.1h96c0.6,0,1.1,0.5,1.1,1.1l0,0
					C260,192.4,259.5,192.9,258.9,192.9z"/>
				<path class="st7" d="M258.9,197.9h-96c-0.6,0-1.1-0.5-1.1-1.1l0,0c0-0.6,0.5-1.1,1.1-1.1h96c0.6,0,1.1,0.5,1.1,1.1l0,0
					C260,197.4,259.5,197.9,258.9,197.9z"/>
			</g>
		</g>
		<g>
			<rect x="119.3" y="222" class="st11" width="29.5" height="29.5"/>
			<g>
				<g>
					<polyline class="st12" points="127.9,238.2 136.9,245.3 155.2,227.7 					"/>
				</g>
				<g>
					<polyline class="st13" points="125.9,236.2 134.9,243.3 153.2,225.7 					"/>
				</g>
			</g>
			<g>
				<path class="st7" d="M258.9,230.4h-96c-0.6,0-1.1-0.5-1.1-1.1l0,0c0-0.6,0.5-1.1,1.1-1.1h96c0.6,0,1.1,0.5,1.1,1.1l0,0
					C260,229.9,259.5,230.4,258.9,230.4z"/>
				<path class="st7" d="M258.9,235.4h-96c-0.6,0-1.1-0.5-1.1-1.1l0,0c0-0.6,0.5-1.1,1.1-1.1h96c0.6,0,1.1,0.5,1.1,1.1l0,0
					C260,234.9,259.5,235.4,258.9,235.4z"/>
				<path class="st7" d="M258.9,240.4h-96c-0.6,0-1.1-0.5-1.1-1.1l0,0c0-0.6,0.5-1.1,1.1-1.1h96c0.6,0,1.1,0.5,1.1,1.1l0,0
					C260,239.9,259.5,240.4,258.9,240.4z"/>
				<path class="st7" d="M258.9,245.4h-96c-0.6,0-1.1-0.5-1.1-1.1l0,0c0-0.6,0.5-1.1,1.1-1.1h96c0.6,0,1.1,0.5,1.1,1.1l0,0
					C260,244.9,259.5,245.4,258.9,245.4z"/>
			</g>
		</g>
		<g>
			<rect x="119.3" y="269.4" class="st11" width="29.5" height="29.5"/>
			<g>
				<g>
					<polyline class="st12" points="127.9,285.7 136.9,292.7 155.2,275.1 					"/>
				</g>
				<g>
					<polyline class="st13" points="125.9,283.7 134.9,290.7 153.2,273.1 					"/>
				</g>
			</g>
			<g>
				<path class="st7" d="M258.9,277.8h-96c-0.6,0-1.1-0.5-1.1-1.1l0,0c0-0.6,0.5-1.1,1.1-1.1h96c0.6,0,1.1,0.5,1.1,1.1l0,0
					C260,277.3,259.5,277.8,258.9,277.8z"/>
				<path class="st7" d="M258.9,282.8h-96c-0.6,0-1.1-0.5-1.1-1.1l0,0c0-0.6,0.5-1.1,1.1-1.1h96c0.6,0,1.1,0.5,1.1,1.1l0,0
					C260,282.3,259.5,282.8,258.9,282.8z"/>
				<path class="st7" d="M258.9,287.8h-96c-0.6,0-1.1-0.5-1.1-1.1l0,0c0-0.6,0.5-1.1,1.1-1.1h96c0.6,0,1.1,0.5,1.1,1.1l0,0
					C260,287.3,259.5,287.8,258.9,287.8z"/>
				<path class="st7" d="M258.9,292.8h-96c-0.6,0-1.1-0.5-1.1-1.1l0,0c0-0.6,0.5-1.1,1.1-1.1h96c0.6,0,1.1,0.5,1.1,1.1l0,0
					C260,292.3,259.5,292.8,258.9,292.8z"/>
			</g>
		</g>
		<g>
			<rect x="119.3" y="316.8" class="st11" width="29.5" height="29.5"/>
			<g>
				<g>
					<polyline class="st12" points="127.9,333.1 136.9,340.1 155.2,322.5 					"/>
				</g>
				<g>
					<polyline class="st13" points="125.9,331.1 134.9,338.1 153.2,320.5 					"/>
				</g>
			</g>
			<g>
				<path class="st7" d="M258.9,325.2h-96c-0.6,0-1.1-0.5-1.1-1.1l0,0c0-0.6,0.5-1.1,1.1-1.1h96c0.6,0,1.1,0.5,1.1,1.1l0,0
					C260,324.7,259.5,325.2,258.9,325.2z"/>
				<path class="st7" d="M258.9,330.2h-96c-0.6,0-1.1-0.5-1.1-1.1l0,0c0-0.6,0.5-1.1,1.1-1.1h96c0.6,0,1.1,0.5,1.1,1.1l0,0
					C260,329.7,259.5,330.2,258.9,330.2z"/>
				<path class="st7" d="M258.9,335.2h-96c-0.6,0-1.1-0.5-1.1-1.1l0,0c0-0.6,0.5-1.1,1.1-1.1h96c0.6,0,1.1,0.5,1.1,1.1l0,0
					C260,334.7,259.5,335.2,258.9,335.2z"/>
				<path class="st7" d="M258.9,340.2h-96c-0.6,0-1.1-0.5-1.1-1.1l0,0c0-0.6,0.5-1.1,1.1-1.1h96c0.6,0,1.1,0.5,1.1,1.1l0,0
					C260,339.7,259.5,340.2,258.9,340.2z"/>
			</g>
		</g>
	</g>
	<line class="st5" x1="8.4" y1="396.6" x2="492.5" y2="396.6"/>
	<rect x="313.5" y="387.7" class="st14" width="4.6" height="5.6"/>
	<polygon class="st15" points="313.5,392 315.9,392.7 318.1,392 320.1,396.6 301.6,396.6 308.6,394.3 	"/>
	<polygon class="st14" points="361.3,393.3 365.9,393.3 364.2,387.7 359.6,387.7 	"/>
	<polygon class="st15" points="365.5,392 363.1,392.7 360.9,392 358.9,396.6 377.3,396.6 370.4,394.3 	"/>
	<path class="st16" d="M293.4,211c-0.5,0.2-5.2,1.2-5.2,1.2l-1.6-4.4l2.1-3.8l5.8,2.3c0,0,0.1,3.3,0.1,3.3
		C294.6,210.5,294,210.8,293.4,211z"/>
	<path class="st17" d="M294.5,206.3l0,2.9l-3.1,0.2c-0.6,0.1-1.2-0.1-1.7-0.4c-1.1-0.7-1.5-2.1-1-3.3l0.7-1.4L294.5,206.3z"/>
	<path class="st14" d="M288.7,207l0.4-3.4l-3.3-1.8c-0.6-0.4-1.4-0.2-1.7,0.4l0,0c-0.4,0.6-0.2,1.4,0.4,1.7L288.7,207z"/>
	<polygon class="st18" points="294.7,210 287.6,211.7 285.1,232.2 293.3,232.6 	"/>
	<path class="st17" d="M342.3,280.4l1.8-4.8l6.2-0.5c1.1-0.1,2.2,0.6,2.3,1.5l0,0c0.1,1-0.7,1.9-1.9,2L342.3,280.4z"/>
	<path class="st14" d="M339.1,275.7l3.2,4.8l6.1-1.3l-6.9-10.2l-1.3,0.9C338.3,271.2,337.8,273.8,339.1,275.7z"/>
	<polygon class="st18" points="344.1,274.1 364.9,252.3 354,249.7 341.6,269 	"/>
	<path class="st18" d="M356.9,251.4c1.1,2.4,3.9,3.4,6.3,2.3c2.4-1.1,3.4-3.9,2.3-6.3c-1.1-2.4-3.9-3.4-6.3-2.3
		C356.8,246.1,355.8,249,356.9,251.4z"/>
	<path class="st18" d="M358.5,253.3l6.4-6.8l-22.4-26.6c-1.9-2.6-5.7-2.9-8-0.6l0,0c-2.3,2.3-2.1,10.3,0.5,12.3L358.5,253.3z"/>
	
		<rect x="322.4" y="207.6" transform="matrix(-0.9964 -8.437365e-02 8.437365e-02 -0.9964 634.6888 456.5738)" class="st14" width="9.2" height="14.6"/>
	<path class="st18" d="M288.8,229.1c-2.3,0.2-4,2.1-3.9,4.4c0.2,2.3,2.1,4,4.4,3.9c2.3-0.2,4-2.1,3.9-4.4
		C293,230.7,291,229,288.8,229.1z"/>
	<path class="st18" d="M286.1,229.7l4.2,7.5l25.6-5.8c3.1-0.8,4.8-8.4,3.6-11.4l0,0c-1.2-3-4.8-4.2-7.6-2.6L286.1,229.7z"/>
	<path class="st18" d="M339.1,271.9l2.8-48.8c0.7-2.6-1.1-5.2-3.8-5.6l-22.9-0.8c-2.7-0.4-5,1.7-5.1,4.4l-4.7,59.3L339.1,271.9z"/>
	<polygon class="st19" points="317.3,271.9 322.5,288.4 320.2,390.2 310.8,390.2 305.5,280.4 306.2,271.9 	"/>
	<polygon class="st8" points="317.3,271.9 322.4,292.1 326.1,292.1 359.3,390.2 367,390.2 343.6,285.3 339.1,271.9 	"/>
	<path class="st14" d="M288.9,203.4l-0.1,0.1c-0.8,1.6-0.2,3.5,1.4,4.3l0,0c1.6,0.8,3.5,0.2,4.3-1.4l0.1-0.1L288.9,203.4z"/>
	<polygon class="st4" points="321,216.9 327.7,217.2 325,221.3 325,253.7 321,262 317.4,252 322.4,221 	"/>
	<path class="st4" d="M339.2,196c-0.2-2.2-1-4.4-2.4-6c-1.3-1.6-3-2.7-5-3.3c-0.9-0.3-1.8-0.5-2.8-0.4c-1.2,0.1-2.4,0.3-3.6-0.3
		c-1.6-0.7-2.8-2.1-4.2-3c-0.3-0.2-0.7-0.4-1.1-0.5l0,0c-1.5-0.6-3.5-0.4-5,0.6c-0.7,0.5-1.3,1.2-1.7,2c-0.4,0.8-0.7,1.6-0.7,2.5
		c-0.1,1.7,0.3,3.5,1.2,5c0.9,1.3,2,2.5,3.4,3.3c-0.1,0.4-0.1,0.7-0.1,1.1c-0.3,6.1,4.4,11.2,10.5,11.5c4.3,0.2,8.3-2.1,10.3-5.9
		C339.1,200.5,339.5,198.2,339.2,196z M316.2,193.9c-0.5-0.6-1-1.2-1.4-1.9c-0.9-1.3-1.4-2.9-1.4-4.5c0.1-1.6,0.8-3.2,2-4.2
		c0.5-0.4,1-0.6,1.6-0.8c-0.3,0.1-0.6,0.3-0.8,0.5c-1.2,1-1.7,2.6-1.8,4.1c-0.2,3,0.9,5.9,3.1,7.9c0,0,0,0.1,0,0.1
		C317.1,194.8,316.6,194.4,316.2,193.9z"/>
	<path class="st14" d="M334.1,202.7c-0.2,1.1,0.6,2.2,1.7,2.4c1.1,0.2,2.2-0.6,2.4-1.7c0.2-1.1-0.6-2.2-1.7-2.4
		C335.4,200.8,334.3,201.6,334.1,202.7z"/>
	<path class="st14" d="M325.1,191c-4.9-0.1-6.8,4-6.8,4c0,0-0.3,1.4-0.3,1.4l-0.2,1.3c0,0.1,0,0.1,0,0.2l0,0l-0.6,3.6
		c-0.8,4.9,2.3,9.8,7.2,10.7c5,0.9,9.7-2.4,10.6-7.4l0.7-4.4c0,0,0,0,0,0C335.8,200.4,337.2,191.8,325.1,191z"/>
	<path class="st18" d="M326.1,202.6c-0.5-0.3-4.1-1-4.5-0.8c-0.5,0.3-0.7,0.9-0.5,1.4c0.1,0.5,0.5,0.9,0.9,1.2
		c1,0.7,2.4,0.8,3.4,0.3c0.4-0.2,0.8-0.5,1-0.9C326.6,203.4,326.5,202.8,326.1,202.6z"/>
	<path class="st4" d="M327.1,191.2c1.2,0.2,2.4,0.5,3.6,1c0.9,0.3,1.7,0.8,2.4,1.4c2.3,2,0.2,6.2-0.5,8.4c-0.2,0.5-0.4,1.2-0.1,1.6
		c0.4,0.5,1.2,0.4,1.7,0c0.5-0.4,0.7-1,1-1.5c0.3-0.5,0.8-1.1,1.4-1.1c0,0-0.4-10-0.4-10c0-0.1-6.3-0.2-6.8-0.2
		C328.4,190.7,327.1,191.2,327.1,191.2z"/>
	<path id="XMLID_132_" class="st20" d="M369.6,201.5c10.7-0.3,19.2-9.3,18.9-20c-0.3-10.7-9.3-19.2-20-18.9
		c-10.7,0.3-19.2,9.3-18.9,20c0.1,2.7,0.7,5.3,1.8,7.6l-5.5,7.2l8.7-2.4C358.2,199.1,363.6,201.7,369.6,201.5z"/>
	<g id="XMLID_45_">
		<path id="XMLID_42_" class="st18" d="M363,182.2c0,1.1-0.8,2.1-1.9,2.1c-1.1,0-1.9-0.9-2-2c0-1.1,0.8-2.1,1.9-2.1
			C362.1,180.2,363,181.1,363,182.2z"/>
		<path id="XMLID_128_" class="st18" d="M370.8,182c0,1.1-0.8,2.1-1.9,2.1c-1.1,0-1.9-0.9-2-2c0-1.1,0.8-2.1,1.9-2.1
			C369.9,180,370.8,180.8,370.8,182z"/>
		<path id="XMLID_133_" class="st18" d="M379,181.7c0,1.1-0.8,2.1-1.9,2.1c-1.1,0-1.9-0.9-2-2c0-1.1,0.8-2.1,1.9-2.1
			C378.1,179.7,379,180.6,379,181.7z"/>
	</g>
	<path class="st21" d="M384,395.7c3-5.5-0.4-12.3-4.3-17.3c-3.9-4.9-8.7-10.1-8.6-16.4c0.1-9,9.8-14.4,17.5-19.2
		c5.7-3.6,11-7.8,15.7-12.6c2-1.8,3.6-4,4.8-6.4c1.6-3.5,1.5-7.6,1.5-11.5c-0.3-12.9-1-25.8-1.9-38.7"/>
	<path class="st19" d="M423.2,273c-0.2-4.8-2.9-9.2-7.1-11.5l-3.2,6.2l0.1-7.6c-1.5-0.4-3-0.6-4.6-0.6c-7.8,0.4-13.8,7-13.5,14.8
		c0.4,7.8,7,13.8,14.8,13.4C417.6,287.4,423.6,280.8,423.2,273C423.3,273,423.3,273,423.2,273L423.2,273L423.2,273z"/>
	<path class="st19" d="M398,368.5c-3.6,6.9-12.1,9.7-19,6.1c-7-3.6-9.7-12.1-6.1-19c3.6-6.9,12.1-9.7,19.1-6.1
		c3.1,1.6,5.6,4.3,6.8,7.6l-8.8,7.2l9.7-2.3C399.5,364.3,399,366.5,398,368.5z"/>
	<path class="st19" d="M391,341.1c-7.8,0.4-14.4-5.6-14.8-13.4c-0.3-6.6,4-12.5,10.3-14.2l-0.1,5.8l3.2-6.3l0,0
		c7.8-0.4,14.4,5.6,14.8,13.4C404.8,334.1,398.8,340.8,391,341.1L391,341.1L391,341.1z"/>
	<path class="st19" d="M425.3,318.3c-7.8,0.4-14.4-5.6-14.8-13.4c-0.4-7.8,5.6-14.4,13.4-14.8c2.7-0.1,5.4,0.5,7.7,1.8l-2.5,6.9
		l5.2-4.9c2.8,2.5,4.4,6,4.6,9.7c0.1,1.3-0.1,2.6-0.4,3.9C437,313.7,431.6,318.1,425.3,318.3z"/>
	<path class="st22" d="M421.3,276.8c-3.3,0.4-6.4,1.4-9.7,1.6s-6.9-0.6-8.9-3.1c-1-1.5-1.8-3-2.6-4.6c-0.9-1.4-2.1-2.5-3.6-3.3
		c-3.6,6.9-0.8,15.4,6.2,19c7,3.5,15.5,0.8,19-6.2c0.6-1.1,1-2.3,1.2-3.5C422.4,276.7,421.8,276.7,421.3,276.8z"/>
	<path class="st22" d="M425.3,318.3c-7.8,0.4-14.4-5.6-14.8-13.4c-0.1-2.3,0.4-4.6,1.3-6.7c1.1,0.7,2.1,1.7,2.8,2.8
		c0.8,1.6,1.8,3.2,2.8,4.7c2.2,2.6,6,3.4,9.4,3.3c3.4-0.2,6.7-1.1,10.1-1.4c0.5,0,1-0.1,1.4-0.1C437,313.6,431.6,318,425.3,318.3z"
		/>
	<path class="st22" d="M391,341.1c-7.8,0.4-14.4-5.6-14.8-13.4c-0.1-2.2,0.3-4.5,1.2-6.5c1.2,0.8,2.2,1.7,3,2.9
		c1.1,1.5,1.8,3.3,3.1,4.8c2.4,2.7,6.4,3.6,10,3.5s6.9-0.9,10.3-1.2C402.1,336.8,397,340.8,391,341.1z"/>
	<path class="st22" d="M398,368.5c-3.7,6.9-12.3,9.5-19.2,5.8c-6.2-3.3-9-10.6-6.6-17.2c1.2,0.8,2.2,1.7,3.1,2.8
		c1.4,1.6,2.3,3.4,3.8,5c2.9,2.8,7.6,4,11.7,4.1C393.2,368.9,395.6,368.8,398,368.5z"/>
	<path class="st21" d="M46.2,307.6c-0.9,9.3-1.5,18.6-1.8,27.9c-0.1,2.8-0.1,5.7,1.4,8.3c1.1,1.7,2.7,3.3,4.5,4.6
		c4.4,3.5,9.4,6.5,14.8,9.1c7.3,3.5,16.3,7.3,16.5,13.8c0.1,4.5-4.4,8.3-8.1,11.8c-3.7,3.5-6.9,8.4-4.1,12.4"/>
	<path class="st19" d="M32.4,307.1L32.4,307.1C32.3,307.1,32.3,307.1,32.4,307.1c-0.4,5.6,5.3,10.4,12.6,10.6
		c7.4,0.3,13.6-4.1,13.9-9.7c0.3-5.6-5.3-10.4-12.7-10.6c-1.5-0.1-2.9,0.1-4.3,0.4l0.1,5.4l-3-4.5C35.1,300.5,32.6,303.6,32.4,307.1
		L32.4,307.1z"/>
	<path class="st19" d="M54.7,371.2l9.2,1.7l-8.3-5.2c1.2-2.4,3.4-4.3,6.4-5.5c6.6-2.6,14.6-0.6,18,4.4c3.4,5,0.8,11.1-5.8,13.7
		c-6.6,2.6-14.6,0.6-18-4.4C55.2,374.4,54.7,372.8,54.7,371.2z"/>
	<path class="st19" d="M62.8,356.1L62.8,356.1c-7.4-0.3-13-5-12.7-10.6c0.3-5.6,6.6-9.9,14-9.7l0,0l3,4.6l-0.1-4.2
		c6,1.3,10,5.5,9.7,10.3C76.4,352,70.1,356.4,62.8,356.1L62.8,356.1z"/>
	<path class="st19" d="M18,331.9c-0.3-0.9-0.4-1.9-0.3-2.8c0.2-2.7,1.7-5.2,4.3-7l4.9,3.5l-2.4-5c2.2-1,4.7-1.4,7.2-1.3
		c7.4,0.3,13,5.1,12.6,10.7c-0.4,5.6-6.6,9.9-14,9.6C24.5,339.5,19.4,336.3,18,331.9z"/>
	<path class="st22" d="M32.7,309.7c0.2,0.9,0.6,1.7,1.2,2.5c3.3,5,11.4,7,17.9,4.4c6.6-2.6,9.2-8.7,5.8-13.7
		c-1.4,0.6-2.5,1.4-3.4,2.4c-0.7,1.1-1.6,2.2-2.5,3.3c-1.9,1.9-5.3,2.4-8.4,2.3s-6.1-0.9-9.2-1.1C33.7,309.7,33.2,309.7,32.7,309.7z
		"/>
	<path class="st22" d="M18.1,331.9c0.4,0,0.9,0.1,1.3,0.1c3.2,0.2,6.3,0.9,9.5,1c3.2,0.1,6.8-0.5,8.8-2.4c1-1.1,1.8-2.2,2.6-3.4
		c0.7-0.8,1.6-1.5,2.7-2c0.9,1.5,1.4,3.2,1.3,4.8c-0.3,5.6-6.6,9.9-13.9,9.7C24.5,339.5,19.4,336.3,18.1,331.9z"/>
	<path class="st22" d="M50.6,348.9c3.3,0.2,6.3,0.8,9.7,0.9s7.2-0.6,9.5-2.5c1.2-1,1.8-2.3,2.9-3.4c0.8-0.8,1.7-1.5,2.8-2.1
		c0.9,1.5,1.3,3.1,1.2,4.7c-0.4,5.6-6.6,9.9-14,9.6C57.1,355.9,52.3,353,50.6,348.9z"/>
	<path class="st22" d="M62.9,376.2c3.9-0.1,8.3-0.9,11-3c1.4-1.1,2.3-2.4,3.6-3.6c0.8-0.8,1.8-1.5,2.9-2c2.2,4.7-0.4,10-6.3,12.4
		c-6.5,2.7-14.6,0.8-18.1-4.2C58.4,376.1,60.7,376.2,62.9,376.2z"/>
</g>
</svg>
